<svg width="432.000000" height="300.000061" viewBox="0 0 432 300" fill="none" xmlns="http://www.w3.org/2000/svg" xmlns:xlink="http://www.w3.org/1999/xlink">
	<desc>
			Created with Pixso.
	</desc>
	<defs/>
	<g opacity="0.000000">
		<path id="Vector" d="M419.13 173.77C407.06 201.62 381.05 232.16 342.77 242.1C284.93 257.13 279.74 293.24 174.8 293C159.48 293.01 144.2 291.76 129.23 289.27C121.91 288.03 114.7 286.44 107.65 284.5C45.46 267.42 11.42 226.81 6.54 183.41C0.15 126.32 51.16 97.52 84.38 80.54C117.6 63.56 155.54 0.53 258.74 0.15C274.49 0.05 290.21 1.32 305.57 3.96C340.61 10.09 376.67 24.86 398.33 47.36C399.95 49.05 401.51 50.76 403.01 52.55C432.26 87.18 435.59 135.78 419.13 173.77Z" fill="#92E3A9" fill-opacity="1.000000" fill-rule="nonzero"/>
		<g opacity="0.700000">
			<path id="Vector" d="M419.13 173.77C407.06 201.62 381.05 232.16 342.77 242.1C284.93 257.13 279.74 293.24 174.8 293C159.48 293.01 144.2 291.76 129.23 289.27C121.91 288.03 114.7 286.44 107.65 284.5C45.46 267.42 11.42 226.81 6.54 183.41C0.15 126.32 51.16 97.52 84.38 80.54C117.6 63.56 155.54 0.53 258.74 0.15C274.49 0.05 290.21 1.32 305.57 3.96C340.61 10.09 376.67 24.86 398.33 47.36C399.95 49.05 401.51 50.76 403.01 52.55C432.26 87.18 435.59 135.78 419.13 173.77Z" fill="#FFFFFF" fill-opacity="1.000000" fill-rule="nonzero"/>
		</g>
	</g>
	<path id="Vector" d="M62.25 270.7L29.8 270.7C29.68 270.7 29.57 270.65 29.49 270.57C29.4 270.49 29.36 270.38 29.35 270.26L29.35 247.05C29.36 246.94 29.4 246.82 29.49 246.74C29.57 246.66 29.68 246.61 29.8 246.61L62.25 246.61C62.37 246.61 62.48 246.65 62.57 246.74C62.65 246.82 62.7 246.94 62.7 247.05L62.7 270.26C62.7 270.38 62.65 270.49 62.57 270.57C62.48 270.66 62.37 270.7 62.25 270.7ZM30.21 269.81L61.84 269.81L61.84 247.5L30.25 247.5L30.21 269.81Z" fill="#263238" fill-opacity="1.000000" fill-rule="nonzero"/>
	<path id="Vector" d="M46.04 259.09C45.95 259.09 45.86 259.06 45.78 259.01L29.54 247.41C29.45 247.34 29.38 247.23 29.37 247.12C29.35 247 29.38 246.88 29.44 246.79C29.51 246.69 29.62 246.63 29.73 246.61C29.85 246.59 29.97 246.62 30.06 246.69L46.04 258.11L62.03 246.69C62.12 246.62 62.24 246.59 62.36 246.61C62.48 246.63 62.58 246.69 62.65 246.79C62.69 246.83 62.71 246.89 62.72 246.95C62.74 247 62.74 247.06 62.73 247.12C62.72 247.18 62.7 247.23 62.67 247.28C62.63 247.33 62.59 247.38 62.55 247.41L46.3 259.01C46.23 259.07 46.14 259.09 46.04 259.09Z" fill="#263238" fill-opacity="1.000000" fill-rule="nonzero"/>
	<path id="Vector" d="M10.72 299L425.71 299L425.71 299.89L10.72 299.89L10.72 299Z" fill="#263238" fill-opacity="1.000000" fill-rule="evenodd"/>
	<path id="Vector" d="M9.18 185.89C12.09 185.42 17.57 181.71 17.58 181.71C17.59 181.71 14.01 178.84 13.78 178.69C10.91 176.9 4.33 175.21 1.47 177.65C1.01 178.07 0.64 178.58 0.38 179.15C0.13 179.73 0 180.34 0 180.97C0 181.59 0.13 182.21 0.38 182.78C0.64 183.36 1.01 183.87 1.47 184.28C3.42 186.12 6.69 186.29 9.18 185.89Z" fill="#263238" fill-opacity="1.000000" fill-rule="nonzero"/>
	<path id="Vector" d="M21.5 200.73C24.08 199.56 28.11 194.92 28.43 194.56C31.08 196.87 33.88 198.99 36.82 200.93C38.52 202.06 40.27 203.16 42.04 204.23C41.14 203.87 40.37 203.54 40.25 203.51C37.02 202.56 30.22 202.62 28.1 205.75C27.77 206.28 27.55 206.87 27.45 207.49C27.36 208.11 27.4 208.74 27.57 209.34C27.74 209.94 28.03 210.5 28.43 210.99C28.83 211.47 29.33 211.86 29.89 212.14C32.23 213.41 35.44 212.71 37.72 211.67C40 210.62 43.57 206.72 44.48 205.69L46.53 206.9C49.82 208.84 53.1 210.75 56.26 212.72C57.38 213.42 58.45 214.14 59.53 214.86C58.75 214.54 58.08 214.26 57.98 214.24C54.75 213.29 47.95 213.34 45.83 216.49C45.49 217.01 45.27 217.61 45.18 218.23C45.09 218.84 45.13 219.48 45.3 220.08C45.47 220.68 45.76 221.24 46.16 221.72C46.56 222.21 47.06 222.6 47.62 222.88C49.96 224.13 53.16 223.44 55.45 222.39C57.74 221.35 60.95 217.83 62.04 216.6C63.13 217.37 64.21 218.15 65.22 218.94C65.9 219.5 66.59 219.99 67.24 220.59L69.17 222.29C70.37 223.43 71.61 224.6 72.74 225.74C73.54 226.54 74.29 227.29 75.04 228.07C73.94 227.37 71.75 226.03 71.56 225.94C68.51 224.52 61.73 223.56 59.21 226.32C58.8 226.79 58.49 227.34 58.3 227.94C58.12 228.54 58.06 229.17 58.14 229.79C58.21 230.41 58.41 231.01 58.73 231.55C59.06 232.08 59.49 232.55 60 232.91C62.13 234.51 65.36 234.31 67.81 233.62C70.49 232.86 74.96 229.07 75.56 228.59C76.81 229.87 78.01 231.13 79.14 232.33C81.6 235 83.73 237.41 85.5 239.47L87.58 238.13C85.7 236.01 83.42 233.52 80.76 230.79C79.5 229.48 78.14 228.11 76.71 226.72C77.81 225.17 78.82 223.56 79.73 221.89C82.48 222.61 87.96 221.98 88.67 221.89C89 223.68 89.3 225.36 89.56 226.97C90.12 230.36 90.54 233.4 90.86 236L93.12 234.56C92.75 232.19 92.31 229.52 91.77 226.59C91.44 224.8 91.04 222.9 90.63 220.97C91.3 220.71 96.82 218.55 98.76 216.58C100.55 214.79 102.26 212.01 101.88 209.37C101.81 208.75 101.6 208.15 101.28 207.61C100.96 207.08 100.54 206.61 100.02 206.25C99.51 205.89 98.93 205.64 98.32 205.51C97.7 205.39 97.07 205.4 96.46 205.54C92.8 206.43 90.43 212.83 90.2 216.18C90.2 216.38 90.29 218.54 90.38 219.9C90.21 219.11 90.05 218.34 89.86 217.52C89.5 215.91 89.09 214.31 88.65 212.59L87.92 210.1C87.7 209.26 87.35 208.4 87.03 207.53C86.33 205.56 85.53 203.6 84.67 201.63C86.08 201.3 91.09 200.09 93.11 198.58C95.13 197.07 97.26 194.59 97.27 191.94C97.3 191.32 97.19 190.69 96.96 190.11C96.72 189.53 96.37 189.01 95.92 188.57C95.47 188.14 94.94 187.8 94.35 187.58C93.76 187.37 93.13 187.28 92.51 187.32C88.75 187.69 85.44 193.61 84.71 196.9C84.71 197.1 84.43 199.52 84.31 200.85C83.79 199.67 83.28 198.49 82.7 197.32C81.07 193.93 79.31 190.56 77.56 187.18C77.03 186.14 76.51 185.11 75.98 184.07C76.48 183.96 82.46 182.64 84.73 180.95C86.74 179.45 88.89 176.97 88.9 174.31C88.92 173.68 88.81 173.06 88.58 172.48C88.34 171.9 87.99 171.37 87.54 170.94C87.09 170.5 86.55 170.17 85.96 169.95C85.38 169.74 84.75 169.65 84.12 169.69C80.38 170.06 77.05 175.98 76.34 179.27C76.28 179.52 75.93 182.99 75.88 183.88C74.73 181.6 73.59 179.31 72.58 177.02C71.18 173.92 69.99 170.74 69 167.49C69.23 167.43 75.48 166.09 77.8 164.36C79.82 162.85 81.96 160.37 81.97 157.72C81.99 157.09 81.88 156.47 81.65 155.89C81.42 155.31 81.06 154.78 80.61 154.35C80.16 153.91 79.63 153.58 79.04 153.36C78.45 153.15 77.82 153.06 77.2 153.1C73.45 153.47 70.13 159.39 69.41 162.68C69.36 162.93 68.97 166.67 68.95 167.35C68.9 167.17 68.82 166.98 68.77 166.78C67.88 163.5 67.28 160.14 66.98 156.74C66.79 154.88 66.71 153.07 66.68 151.32C67.87 151.19 73.3 150.53 75.56 149.2C77.82 147.87 80.13 145.69 80.43 143.05C80.52 142.43 80.48 141.8 80.31 141.2C80.14 140.6 79.85 140.04 79.45 139.56C79.05 139.08 78.56 138.68 77.99 138.41C77.43 138.13 76.82 137.97 76.2 137.95C72.43 137.89 68.48 143.42 67.4 146.6C67.35 146.78 66.94 148.6 66.68 149.94C66.68 149.15 66.68 148.34 66.68 147.58C66.68 144.73 66.92 142.12 67.12 139.82C67.25 138.51 67.39 137.33 67.53 136.25C68.63 135.51 73.03 132.49 74.4 130.31C75.77 128.13 76.83 125.1 75.88 122.61C75.68 122.02 75.35 121.48 74.92 121.02C74.5 120.57 73.98 120.21 73.4 119.96C72.83 119.72 72.2 119.6 71.58 119.61C70.95 119.62 70.34 119.76 69.77 120.03C66.4 121.71 65.44 128.43 65.96 131.76C65.96 132.05 67.22 136.46 67.28 136.42L67.35 136.38C67.18 137.44 67.03 138.57 66.88 139.82C66.62 142.12 66.36 144.73 66.26 147.59C66.12 150.66 66.16 153.75 66.38 156.82C66.61 160.27 67.14 163.68 67.98 167.03C67.98 167.03 67.98 167.1 67.98 167.15C67.4 166.21 65.67 163.64 65.52 163.46C63.35 160.89 57.64 157.22 54.15 158.64C53.58 158.9 53.07 159.27 52.65 159.74C52.23 160.2 51.91 160.75 51.72 161.34C51.53 161.94 51.46 162.57 51.53 163.19C51.59 163.81 51.79 164.41 52.1 164.95C53.36 167.3 56.41 168.52 58.9 168.87C61.7 169.31 67.62 167.67 68.1 167.53C69.03 170.92 70.19 174.24 71.56 177.48C72.36 179.36 73.22 181.23 74.1 183.11C73.57 182.31 73.09 181.61 73.01 181.51C70.84 178.95 65.12 175.26 61.63 176.7C61.07 176.96 60.56 177.34 60.15 177.81C59.74 178.28 59.43 178.83 59.24 179.42C59.05 180.02 59 180.64 59.07 181.26C59.14 181.88 59.34 182.48 59.66 183.02C60.92 185.36 63.98 186.59 66.46 186.94C68.95 187.3 74.06 186.05 75.4 185.67C75.75 186.38 76.08 187.11 76.43 187.82C78.1 191.24 79.79 194.64 81.34 198.03C81.88 199.23 82.38 200.42 82.87 201.6C82.41 200.89 81.98 200.31 81.98 200.22C79.8 197.65 74.09 193.98 70.6 195.41C70.02 195.66 69.5 196.03 69.07 196.49C68.64 196.96 68.32 197.51 68.12 198.11C67.92 198.71 67.85 199.35 67.92 199.98C67.99 200.61 68.19 201.21 68.51 201.76C69.77 204.1 72.83 205.29 75.31 205.68C77.8 206.07 82.41 204.89 84.01 204.47C84.48 205.7 84.96 206.95 85.36 208.18C85.62 209.02 85.92 209.8 86.14 210.67L86.81 213.17C87.17 214.79 87.57 216.45 87.89 218.03C88.11 219.14 88.32 220.18 88.52 221.24C87.99 220.05 86.9 217.73 86.79 217.55C85.15 215.08 82.9 213.08 80.26 211.73C80.09 211.45 79.9 211.18 79.68 210.93C79.28 210.46 78.78 210.07 78.21 209.8C77.65 209.52 77.03 209.37 76.41 209.35C75.78 209.33 75.16 209.44 74.58 209.68C74 209.91 73.47 210.27 73.04 210.72C70.5 213.5 72.03 220.12 73.71 223.04C73.81 223.21 75.1 224.96 75.92 226.04C75.34 225.47 74.77 224.92 74.13 224.35C72.94 223.2 71.71 222.09 70.39 220.89L68.41 219.22C67.76 218.64 67 218.11 66.29 217.55C64.61 216.29 62.86 215.09 61.05 213.92C62.06 212.87 65.52 209.1 66.42 206.73C67.31 204.36 67.69 201.12 66.23 198.89C65.9 198.36 65.47 197.9 64.95 197.55C64.44 197.19 63.85 196.95 63.24 196.83C62.62 196.72 61.99 196.73 61.38 196.88C60.77 197.02 60.2 197.29 59.7 197.67C56.77 200.05 57.27 206.82 58.5 209.95C58.57 210.15 59.69 212.3 60.34 213.47C59.25 212.77 58.17 212.08 57.05 211.41C53.81 209.49 50.47 207.64 47.15 205.78L44.11 204.06C44.48 203.7 48.73 199.31 49.69 196.65C50.58 194.28 50.95 191.03 49.49 188.81C49.17 188.28 48.73 187.82 48.22 187.46C47.7 187.11 47.12 186.86 46.5 186.75C45.89 186.63 45.26 186.65 44.65 186.79C44.04 186.94 43.47 187.21 42.97 187.59C40.04 189.96 40.55 196.73 41.76 199.86C41.85 200.1 43.48 203.19 43.93 203.96C41.71 202.69 39.46 201.41 37.38 200.06C34.5 198.24 31.75 196.24 29.13 194.08C29.3 193.91 33.77 189.34 34.74 186.61C35.58 184.25 36 181 34.55 178.78C34.22 178.24 33.79 177.79 33.27 177.43C32.76 177.08 32.17 176.83 31.56 176.72C30.94 176.6 30.31 176.62 29.7 176.76C29.09 176.91 28.52 177.18 28.02 177.56C25.09 179.93 25.6 186.7 26.82 189.84C26.91 190.08 28.66 193.41 29.02 193.99L28.55 193.62C25.99 191.37 23.63 188.9 21.51 186.23C20.31 184.78 19.25 183.32 18.25 181.88C19.15 181.11 23.34 177.56 24.51 175.22C25.68 172.87 26.38 169.77 25.17 167.41C24.91 166.84 24.52 166.34 24.05 165.93C23.58 165.52 23.03 165.21 22.43 165.03C21.83 164.85 21.2 164.79 20.58 164.87C19.96 164.95 19.36 165.15 18.82 165.47C15.65 167.51 15.41 174.3 16.27 177.55C16.32 177.73 16.99 179.47 17.51 180.72C17.06 180.07 16.62 179.4 16.19 178.76C14.65 176.37 13.38 174.07 12.28 172.04C11.66 170.88 11.13 169.82 10.64 168.82C11.15 167.6 13.14 162.65 13.08 160.08C13.01 157.51 12.23 154.39 10.06 152.84C9.57 152.46 9 152.19 8.39 152.04C7.78 151.89 7.14 151.88 6.53 151.99C5.91 152.11 5.33 152.35 4.81 152.7C4.29 153.06 3.86 153.51 3.53 154.05C1.66 157.31 4.57 163.45 6.85 165.94C7.04 166.15 10.49 169.16 10.52 169.09C10.52 169.07 10.52 169.05 10.52 169.02C10.98 170 11.47 171.03 12.04 172.16C13.09 174.22 14.32 176.54 15.81 178.97C17.41 181.61 19.16 184.15 21.05 186.59C23.14 189.33 25.48 191.88 28.02 194.22L28.12 194.3C27.11 193.83 24.27 192.64 24.04 192.58C20.8 191.63 14.01 191.68 11.89 194.83C11.55 195.35 11.33 195.95 11.24 196.57C11.15 197.18 11.19 197.82 11.36 198.42C11.52 199.02 11.82 199.58 12.22 200.06C12.62 200.54 13.11 200.94 13.67 201.22C16.01 202.47 19.21 201.76 21.5 200.73Z" fill="#263238" fill-opacity="1.000000" fill-rule="nonzero"/>
	<path id="Vector" d="M66.22 150.89C66.28 150.89 64.84 146.54 64.72 146.28C63.3 143.23 58.76 138.17 55.02 138.63C54.4 138.73 53.81 138.95 53.28 139.29C52.76 139.63 52.31 140.08 51.97 140.6C51.62 141.12 51.39 141.71 51.29 142.33C51.19 142.94 51.22 143.57 51.38 144.18C51.97 146.77 54.61 148.72 56.9 149.75C59.57 150.93 66.21 150.89 66.22 150.89Z" fill="#263238" fill-opacity="1.000000" fill-rule="nonzero"/>
	<path id="Vector" d="M368.17 76.92C369.17 79.01 373.17 82.27 373.17 82.27C373.17 82.27 374.55 78.98 374.61 78.76C375.3 76.22 375.15 70.9 372.67 69.29C372.25 69.03 371.79 68.87 371.3 68.8C370.81 68.74 370.32 68.78 369.85 68.92C369.38 69.06 368.94 69.29 368.57 69.61C368.19 69.93 367.89 70.33 367.68 70.77C366.73 72.65 367.32 75.14 368.17 76.92Z" fill="#263238" fill-opacity="1.000000" fill-rule="nonzero"/>
	<path id="Vector" d="M359.71 89.44C361.17 91.12 365.55 93.12 365.9 93.28C364.74 95.78 363.76 98.35 362.95 100.98C362.47 102.51 362.05 104.07 361.61 105.63C361.69 104.89 361.77 104.22 361.77 104.13C361.77 101.45 360.2 96.41 357.39 95.51C356.92 95.37 356.43 95.33 355.94 95.4C355.46 95.47 354.99 95.63 354.57 95.89C354.16 96.15 353.8 96.49 353.52 96.9C353.25 97.31 353.06 97.77 352.98 98.25C352.54 100.28 353.77 102.54 355.06 104.02C356.35 105.51 360.08 107.32 361.06 107.77C360.91 108.38 360.75 108.98 360.59 109.56C359.86 112.45 359.15 115.33 358.36 118.14C358.08 119.13 357.78 120.1 357.47 121.07C357.55 120.41 357.6 119.85 357.6 119.77C357.6 117.09 356.04 112.05 353.23 111.15C352.76 111.01 352.26 110.97 351.78 111.04C351.29 111.1 350.82 111.27 350.41 111.53C349.99 111.79 349.63 112.13 349.36 112.54C349.08 112.94 348.9 113.4 348.81 113.89C348.37 115.93 349.61 118.18 350.9 119.66C352.18 121.14 355.54 122.77 356.71 123.33C356.37 124.31 356.03 125.29 355.65 126.23C355.38 126.86 355.16 127.49 354.86 128.11C354.55 128.74 354.27 129.34 353.96 129.95C353.36 131.1 352.75 132.3 352.17 133.4C351.75 134.18 351.34 134.91 350.93 135.64C351.22 134.66 351.74 132.73 351.76 132.57C352.16 129.96 351.4 124.69 348.75 123.38C348.3 123.18 347.82 123.06 347.33 123.06C346.84 123.05 346.35 123.15 345.9 123.34C345.45 123.53 345.05 123.82 344.71 124.18C344.38 124.54 344.13 124.96 343.97 125.43C343.23 127.37 344.1 129.78 345.16 131.45C346.31 133.28 350.16 135.84 350.65 136.15C349.97 137.37 349.28 138.55 348.62 139.65C347.17 142.08 345.82 144.21 344.65 146.01L346.11 147.26C347.28 145.39 348.66 143.12 350.14 140.53C350.84 139.29 351.57 137.96 352.3 136.59C353.71 137.07 355.14 137.47 356.6 137.79C356.67 140.01 358.39 143.99 358.57 144.5C357.33 145.13 356.11 145.74 354.95 146.28C352.53 147.45 350.33 148.44 348.44 149.26L350.02 150.63C351.73 149.83 353.65 148.92 355.73 147.85C357 147.21 358.34 146.5 359.71 145.76C360.06 146.21 362.89 149.87 364.81 150.9C366.55 151.79 369.02 152.51 370.92 151.64C371.37 151.45 371.78 151.16 372.11 150.81C372.45 150.45 372.7 150.02 372.86 149.56C373.02 149.1 373.08 148.61 373.04 148.12C372.99 147.63 372.85 147.16 372.61 146.73C371.11 144.19 365.79 143.81 363.22 144.39C363.07 144.39 361.43 144.98 360.46 145.35L362.13 144.46C363.27 143.83 364.38 143.17 365.58 142.46L367.3 141.37C367.88 141.01 368.45 140.56 369.03 140.16C370.36 139.2 371.67 138.16 372.97 137.09C373.52 138.08 375.53 141.55 377.12 142.75C378.71 143.94 381.04 144.99 383.04 144.41C383.52 144.29 383.96 144.07 384.35 143.77C384.74 143.47 385.05 143.09 385.28 142.65C385.51 142.22 385.65 141.74 385.68 141.25C385.71 140.76 385.63 140.27 385.46 139.81C384.36 137.07 379.16 135.89 376.52 136.08C376.36 136.08 374.49 136.44 373.47 136.64C374.24 135.99 375 135.35 375.76 134.66C377.95 132.69 380.11 130.62 382.26 128.56L384.26 126.69C384.44 127.04 386.76 131.24 388.54 132.57C390.11 133.74 392.45 134.81 394.46 134.23C394.93 134.11 395.38 133.89 395.76 133.58C396.15 133.28 396.47 132.9 396.69 132.47C396.92 132.03 397.06 131.56 397.09 131.07C397.12 130.58 397.05 130.09 396.88 129.63C395.77 126.9 390.58 125.71 387.94 125.9C387.74 125.9 385.04 126.42 384.36 126.58C385.83 125.2 387.3 123.9 388.83 122.58C390.86 120.85 392.99 119.25 395.22 117.79C395.3 117.96 397.7 122.35 399.52 123.7C401.1 124.88 403.43 125.94 405.44 125.36C405.92 125.24 406.36 125.02 406.75 124.72C407.13 124.42 407.45 124.04 407.67 123.6C407.9 123.17 408.04 122.69 408.07 122.2C408.1 121.72 408.03 121.23 407.86 120.77C406.76 118.04 401.6 116.85 398.92 117.04C398.7 117.04 395.81 117.59 395.29 117.73L395.67 117.46C397.94 116.07 400.34 114.87 402.82 113.89C404.19 113.34 405.5 112.89 406.84 112.48C407.2 113.37 408.89 117.27 410.41 118.67C411.93 120.07 414.06 121.35 416.12 120.97C416.6 120.9 417.07 120.73 417.49 120.47C417.9 120.22 418.26 119.87 418.53 119.46C418.81 119.06 418.99 118.6 419.08 118.12C419.17 117.63 419.15 117.14 419.03 116.66C418.23 113.82 413.2 112.08 410.56 111.98C410.42 111.98 408.95 112.07 407.88 112.16L409.67 111.64C411.82 111.04 413.83 110.62 415.61 110.26C416.62 110.07 417.55 109.91 418.4 109.78C419.21 110.44 422.45 113.07 424.39 113.61C426.33 114.14 428.86 114.3 430.52 113.03C430.92 112.75 431.26 112.38 431.51 111.96C431.76 111.54 431.92 111.07 431.97 110.58C432.03 110.1 431.98 109.6 431.83 109.14C431.69 108.67 431.44 108.24 431.12 107.87C429.1 105.72 423.83 106.48 421.44 107.6C421.24 107.7 418.18 109.58 418.22 109.62C417.39 109.74 416.5 109.86 415.54 110.03C413.76 110.34 411.73 110.73 409.55 111.28C407.21 111.85 404.89 112.56 402.63 113.4C400.09 114.34 397.63 115.49 395.3 116.86L395.22 116.91C395.8 116.27 397.34 114.41 397.45 114.23C398.9 112.03 400.41 106.93 398.57 104.63C398.25 104.26 397.86 103.95 397.41 103.74C396.97 103.53 396.49 103.41 396 103.4C395.51 103.39 395.02 103.48 394.57 103.66C394.11 103.85 393.7 104.13 393.37 104.49C391.87 105.94 391.66 108.5 391.92 110.45C392.2 112.65 394.75 116.7 394.95 117.06C392.61 118.51 390.36 120.11 388.23 121.86C386.99 122.87 385.76 123.92 384.55 125.01L385.52 123.84C386.96 121.63 388.48 116.54 386.62 114.23C386.31 113.86 385.92 113.56 385.47 113.35C385.03 113.13 384.55 113.02 384.06 113C383.57 112.99 383.08 113.08 382.63 113.27C382.18 113.45 381.77 113.74 381.43 114.09C379.94 115.55 379.72 118.11 379.97 120.05C380.22 122 382.33 125.56 382.91 126.49L381.52 127.74C379.31 129.75 377.12 131.76 374.91 133.67C374.14 134.34 373.34 134.98 372.55 135.62C372.98 135.11 373.33 134.67 373.39 134.6C374.83 132.4 376.34 127.31 374.49 125.01C374.18 124.63 373.79 124.33 373.34 124.11C372.9 123.9 372.42 123.78 371.93 123.77C371.43 123.76 370.95 123.85 370.49 124.04C370.04 124.22 369.63 124.51 369.29 124.86C367.81 126.32 367.59 128.88 367.84 130.83C368.09 132.77 370.01 135.98 370.68 137.07C369.85 137.7 369.01 138.33 368.18 138.9C367.61 139.28 367.08 139.69 366.49 140.03L364.74 141.1C363.61 141.72 362.44 142.38 361.32 142.97C360.54 143.39 359.8 143.78 359.05 144.16C359.83 143.5 361.34 142.17 361.44 142.04C362.94 140.27 363.95 138.14 364.38 135.87C364.56 135.68 364.71 135.47 364.85 135.25C365.12 134.84 365.31 134.38 365.39 133.9C365.47 133.42 365.45 132.92 365.33 132.45C365.2 131.97 364.98 131.53 364.68 131.14C364.37 130.76 363.99 130.44 363.55 130.22C360.87 128.93 356.25 131.54 354.43 133.44C354.32 133.56 353.28 134.9 352.64 135.77C352.93 135.2 353.23 134.66 353.53 134.07C354.13 132.92 354.69 131.76 355.32 130.5L356.15 128.64C356.44 128.02 356.67 127.34 356.93 126.68C357.51 125.15 358.03 123.56 358.51 121.95C359.52 122.47 363.13 124.27 365.11 124.38C367.08 124.49 369.58 124.1 370.96 122.51C371.29 122.15 371.54 121.72 371.7 121.25C371.85 120.79 371.91 120.3 371.86 119.81C371.81 119.32 371.66 118.85 371.42 118.42C371.17 118 370.84 117.63 370.45 117.34C368 115.66 363.03 117.54 360.93 119.12C360.8 119.23 359.43 120.55 358.69 121.28C358.98 120.32 359.26 119.36 359.51 118.37C360.25 115.51 360.9 112.6 361.57 109.7C361.77 108.81 361.98 107.91 362.19 107.02C362.55 107.21 366.8 109.44 369.01 109.57C370.97 109.68 373.48 109.28 374.86 107.69C375.19 107.33 375.44 106.9 375.6 106.44C375.75 105.97 375.81 105.48 375.76 104.99C375.71 104.51 375.56 104.03 375.31 103.61C375.07 103.18 374.74 102.81 374.34 102.52C371.91 100.85 366.92 102.72 364.83 104.31C364.68 104.43 362.7 106.34 362.23 106.84C362.69 104.89 363.17 102.95 363.72 101.06C364.45 98.5 365.34 95.99 366.4 93.55C366.57 93.64 370.99 95.98 373.26 96.12C375.23 96.23 377.73 95.83 379.12 94.24C379.45 93.88 379.7 93.45 379.85 92.99C380 92.52 380.06 92.03 380.01 91.54C379.96 91.05 379.81 90.58 379.56 90.16C379.32 89.73 378.99 89.36 378.59 89.07C376.16 87.4 371.17 89.27 369.09 90.86C368.92 90.98 366.8 93.04 366.4 93.43C366.47 93.3 366.52 93.13 366.58 93C367.71 90.58 369.05 88.27 370.59 86.08C371.42 84.86 372.29 83.75 373.15 82.68C373.93 83.2 377.52 85.55 379.55 85.89C381.57 86.23 384.01 86.09 385.57 84.67C385.94 84.34 386.23 83.94 386.44 83.5C386.64 83.05 386.75 82.57 386.75 82.08C386.76 81.59 386.66 81.1 386.46 80.65C386.27 80.2 385.98 79.8 385.61 79.47C383.39 77.54 378.22 78.86 375.97 80.22C375.84 80.3 374.68 81.19 373.84 81.85C374.24 81.38 374.65 80.88 375.03 80.43C376.5 78.75 377.94 77.29 379.23 76.02C379.97 75.29 380.65 74.65 381.3 74.06C382.33 74.18 386.49 74.59 388.45 73.96C390.41 73.34 392.54 72.07 393.23 70.11C393.41 69.65 393.49 69.16 393.46 68.67C393.44 68.19 393.31 67.71 393.09 67.27C392.86 66.83 392.55 66.45 392.17 66.14C391.79 65.83 391.35 65.61 390.88 65.48C388 64.79 384.03 68.33 382.66 70.58C382.54 70.78 381.04 74.04 381.09 74.04L381.15 74.04C380.52 74.59 379.85 75.2 379.13 75.87C377.81 77.11 376.34 78.54 374.83 80.2C373.19 81.97 371.66 83.84 370.23 85.79C368.62 87.97 367.22 90.29 366.02 92.72L366.02 92.8C366.15 91.91 366.41 89.55 366.41 89.36C366.41 86.68 364.86 81.64 362.04 80.74C361.57 80.6 361.08 80.56 360.59 80.63C360.1 80.7 359.64 80.86 359.22 81.12C358.8 81.38 358.45 81.72 358.17 82.13C357.9 82.54 357.71 83 357.63 83.48C357.19 85.74 358.42 87.96 359.71 89.44Z" fill="#263238" fill-opacity="1.000000" fill-rule="nonzero"/>
	<path id="Vector" d="M407.13 111.99C407.13 112.04 410.1 110 410.27 109.85C412.25 108.07 415.06 103.6 413.85 100.88C413.64 100.44 413.34 100.05 412.97 99.72C412.6 99.4 412.16 99.17 411.7 99.02C411.23 98.88 410.73 98.84 410.25 98.9C409.76 98.96 409.29 99.12 408.87 99.37C407.09 100.39 406.19 102.8 405.9 104.73C405.61 107.03 407.13 111.98 407.13 111.99Z" fill="#263238" fill-opacity="1.000000" fill-rule="nonzero"/>
	<path id="Vector" d="M76.84 4.2L368.58 4.2L368.58 283.3L76.84 283.3L76.84 4.2Z" fill="#263238" fill-opacity="1.000000" fill-rule="evenodd"/>
	<path id="Vector" d="M368.58 283.74L76.84 283.74C76.72 283.74 76.61 283.7 76.52 283.61C76.44 283.53 76.39 283.42 76.39 283.3L76.39 4.2C76.39 4.08 76.44 3.97 76.52 3.88C76.61 3.8 76.72 3.75 76.84 3.75L368.58 3.75C368.7 3.75 368.81 3.8 368.89 3.88C368.98 3.97 369.02 4.08 369.02 4.2L369.02 283.3C369.02 283.42 368.98 283.53 368.89 283.61C368.81 283.7 368.7 283.74 368.58 283.74ZM77.29 282.85L368.13 282.85L368.13 4.64L77.29 4.64L77.29 282.85Z" fill="#263238" fill-opacity="1.000000" fill-rule="nonzero"/>
	<path id="Vector" d="M81.68 0.44L373.42 0.44L373.42 279.54L81.68 279.54L81.68 0.44Z" fill="#171717" fill-opacity="1.000000" fill-rule="evenodd"/>
	<path id="Vector" d="M373.42 279.99L81.68 279.99C81.57 279.99 81.45 279.94 81.37 279.85C81.28 279.77 81.24 279.66 81.24 279.54L81.24 0.44C81.24 0.32 81.28 0.21 81.37 0.13C81.45 0.04 81.57 0 81.68 0L373.42 0C373.54 0 373.65 0.04 373.74 0.13C373.82 0.21 373.87 0.32 373.87 0.44L373.87 279.54C373.87 279.66 373.82 279.77 373.74 279.85C373.65 279.94 373.54 279.98 373.42 279.99ZM82.13 279.09L372.97 279.09L372.97 0.89L82.13 0.89L82.13 279.09Z" fill="#263238" fill-opacity="1.000000" fill-rule="nonzero"/>
	<path id="Vector" d="M225 265.17C224.88 265.17 224.77 265.12 224.68 265.04C224.6 264.95 224.55 264.84 224.55 264.72L224.55 13.94C224.55 13.82 224.6 13.71 224.68 13.62C224.77 13.54 224.88 13.49 225 13.49C225.12 13.49 225.23 13.54 225.31 13.62C225.4 13.7 225.44 13.82 225.44 13.94L225.44 264.72C225.44 264.84 225.4 264.96 225.31 265.04C225.23 265.12 225.12 265.17 225 265.17Z" fill="#263238" fill-opacity="1.000000" fill-rule="nonzero"/>
	<g opacity="0.200000">
		<path id="Vector" d="M240.7 52.8L259.73 52.8L259.73 61.43L240.7 61.43L240.7 52.8Z" fill="#4C4C4C" fill-opacity="1.000000" fill-rule="evenodd"/>
		<path id="Vector" d="M251.34 42.08L270.36 42.08L270.36 50.71L251.34 50.71L251.34 42.08Z" fill="#4C4C4C" fill-opacity="1.000000" fill-rule="evenodd"/>
		<path id="Vector" d="M262.92 52.8L281.94 52.8L281.94 61.43L262.92 61.43L262.92 52.8Z" fill="#4C4C4C" fill-opacity="1.000000" fill-rule="evenodd"/>
		<path id="Vector" d="M296.03 23.1L315.05 23.1L315.05 31.73L296.03 31.73L296.03 23.1Z" fill="#4C4C4C" fill-opacity="1.000000" fill-rule="evenodd"/>
		<path id="Vector" d="M306.66 12.36L325.69 12.36L325.69 21L306.66 21L306.66 12.36Z" fill="#4C4C4C" fill-opacity="1.000000" fill-rule="evenodd"/>
		<path id="Vector" d="M318.24 23.1L337.26 23.1L337.26 31.73L318.24 31.73L318.24 23.1Z" fill="#4C4C4C" fill-opacity="1.000000" fill-rule="evenodd"/>
		<path id="Vector" d="M262.92 80.35L281.94 80.35L281.94 88.99L262.92 88.99L262.92 80.35Z" fill="#4C4C4C" fill-opacity="1.000000" fill-rule="evenodd"/>
		<path id="Vector" d="M273.55 69.62L292.58 69.62L292.58 78.25L273.55 78.25L273.55 69.62Z" fill="#4C4C4C" fill-opacity="1.000000" fill-rule="evenodd"/>
		<path id="Vector" d="M285.13 80.35L304.15 80.35L304.15 88.99L285.13 88.99L285.13 80.35Z" fill="#4C4C4C" fill-opacity="1.000000" fill-rule="evenodd"/>
		<path id="Vector" d="M322.4 161.56L341.42 161.56L341.42 170.19L322.4 170.19L322.4 161.56Z" fill="#4C4C4C" fill-opacity="1.000000" fill-rule="evenodd"/>
		<path id="Vector" d="M333.03 150.83L352.06 150.83L352.06 159.46L333.03 159.46L333.03 150.83Z" fill="#4C4C4C" fill-opacity="1.000000" fill-rule="evenodd"/>
		<path id="Vector" d="M344.61 161.56L363.63 161.56L363.63 170.19L344.61 170.19L344.61 161.56Z" fill="#4C4C4C" fill-opacity="1.000000" fill-rule="evenodd"/>
		<path id="Vector" d="M322.4 251L341.42 251L341.42 259.63L322.4 259.63L322.4 251Z" fill="#4C4C4C" fill-opacity="1.000000" fill-rule="evenodd"/>
		<path id="Vector" d="M333.03 240.26L352.06 240.26L352.06 248.89L333.03 248.89L333.03 240.26Z" fill="#4C4C4C" fill-opacity="1.000000" fill-rule="evenodd"/>
		<path id="Vector" d="M344.61 251L363.63 251L363.63 259.63L344.61 259.63L344.61 251Z" fill="#4C4C4C" fill-opacity="1.000000" fill-rule="evenodd"/>
		<path id="Vector" d="M245.72 181.23L264.74 181.23L264.74 189.86L245.72 189.86L245.72 181.23Z" fill="#4C4C4C" fill-opacity="1.000000" fill-rule="evenodd"/>
		<path id="Vector" d="M256.35 170.5L275.38 170.5L275.38 179.14L256.35 179.14L256.35 170.5Z" fill="#4C4C4C" fill-opacity="1.000000" fill-rule="evenodd"/>
		<path id="Vector" d="M267.93 181.23L286.95 181.23L286.95 189.86L267.93 189.86L267.93 181.23Z" fill="#4C4C4C" fill-opacity="1.000000" fill-rule="evenodd"/>
		<path id="Vector" d="M245.72 212.36L264.74 212.36L264.74 220.99L245.72 220.99L245.72 212.36Z" fill="#4C4C4C" fill-opacity="1.000000" fill-rule="evenodd"/>
		<path id="Vector" d="M256.35 201.63L275.38 201.63L275.38 210.26L256.35 210.26L256.35 201.63Z" fill="#4C4C4C" fill-opacity="1.000000" fill-rule="evenodd"/>
		<path id="Vector" d="M267.93 212.36L286.95 212.36L286.95 220.99L267.93 220.99L267.93 212.36Z" fill="#4C4C4C" fill-opacity="1.000000" fill-rule="evenodd"/>
		<path id="Vector" d="M290.5 212.36L309.52 212.36L309.52 220.99L290.5 220.99L290.5 212.36Z" fill="#4C4C4C" fill-opacity="1.000000" fill-rule="evenodd"/>
		<path id="Vector" d="M301.14 201.63L320.16 201.63L320.16 210.26L301.14 210.26L301.14 201.63Z" fill="#4C4C4C" fill-opacity="1.000000" fill-rule="evenodd"/>
		<path id="Vector" d="M312.72 212.36L331.74 212.36L331.74 220.99L312.72 220.99L312.72 212.36Z" fill="#4C4C4C" fill-opacity="1.000000" fill-rule="evenodd"/>
	</g>
	<path id="Vector" d="M125.66 114.44L179.41 114.44L179.41 150.1L125.66 150.1L125.66 114.44Z" fill="#397DF6" fill-opacity="1.000000" fill-rule="evenodd"/>
	<path id="Vector" d="M179.41 150.55L125.66 150.55C125.55 150.55 125.43 150.5 125.35 150.42C125.27 150.34 125.22 150.22 125.22 150.1L125.22 114.4C125.22 114.29 125.27 114.17 125.35 114.09C125.43 114.01 125.55 113.96 125.66 113.96L179.41 113.96C179.53 113.96 179.64 114.01 179.72 114.09C179.81 114.17 179.85 114.29 179.85 114.4L179.85 150.1C179.85 150.22 179.81 150.34 179.72 150.42C179.64 150.5 179.53 150.55 179.41 150.55ZM126.11 149.66L178.96 149.66L178.96 114.85L126.11 114.85L126.11 149.66Z" fill="#263238" fill-opacity="1.000000" fill-rule="nonzero"/>
	<path id="Vector" d="M179.41 114.44L152.53 132.27L125.66 114.44L179.41 114.44Z" fill="#263238" fill-opacity="1.000000" fill-rule="nonzero"/>
	<path id="Vector" d="M152.53 132.72C152.45 132.72 152.36 132.69 152.28 132.65L125.41 114.8C125.34 114.74 125.28 114.67 125.24 114.58C125.21 114.49 125.21 114.39 125.24 114.3C125.26 114.21 125.32 114.13 125.4 114.07C125.48 114.01 125.57 113.98 125.66 113.99L179.41 113.99C179.5 113.99 179.59 114.02 179.67 114.07C179.75 114.13 179.8 114.21 179.83 114.3C179.86 114.39 179.85 114.49 179.82 114.58C179.79 114.67 179.73 114.74 179.66 114.8L152.79 132.65C152.71 132.69 152.62 132.72 152.53 132.72ZM127.14 114.87L152.53 131.74L177.92 114.89L127.14 114.87Z" fill="#263238" fill-opacity="1.000000" fill-rule="nonzero"/>
	<path id="Vector" d="M132.79 119.37L132.79 96.32L172.23 96.32L172.23 119.18L152.54 132.27L132.79 119.37Z" fill="#FFFFFF" fill-opacity="1.000000" fill-rule="nonzero"/>
	<path id="Vector" d="M152.54 132.72C152.45 132.72 152.36 132.69 152.28 132.65L132.55 119.74C132.49 119.7 132.44 119.64 132.4 119.58C132.36 119.51 132.34 119.44 132.34 119.37L132.34 96.32C132.34 96.2 132.39 96.09 132.47 96.01C132.56 95.92 132.67 95.88 132.79 95.88L172.2 95.88C172.32 95.88 172.43 95.92 172.52 96.01C172.6 96.09 172.65 96.2 172.65 96.32L172.65 119.18C172.65 119.25 172.63 119.33 172.6 119.39C172.56 119.46 172.51 119.51 172.45 119.55L152.79 132.65C152.71 132.69 152.62 132.72 152.54 132.72ZM133.24 119.13L152.54 131.74L171.78 118.95L171.78 96.74L133.24 96.74L133.24 119.13Z" fill="#263238" fill-opacity="1.000000" fill-rule="nonzero"/>
	<path id="Vector" d="M164.05 104.77L140.24 104.77C140.13 104.77 140.01 104.73 139.93 104.64C139.84 104.56 139.8 104.45 139.8 104.33C139.8 104.21 139.84 104.1 139.93 104.01C140.01 103.93 140.13 103.88 140.24 103.88L164.05 103.88C164.17 103.88 164.28 103.93 164.37 104.01C164.45 104.1 164.5 104.21 164.5 104.33C164.5 104.45 164.45 104.56 164.37 104.64C164.28 104.73 164.17 104.77 164.05 104.77Z" fill="#263238" fill-opacity="1.000000" fill-rule="nonzero"/>
	<path id="Vector" d="M164.05 110.74L140.24 110.74C140.13 110.74 140.01 110.69 139.93 110.61C139.84 110.52 139.8 110.41 139.8 110.29C139.8 110.17 139.84 110.06 139.93 109.97C140.01 109.89 140.13 109.84 140.24 109.84L164.05 109.84C164.17 109.84 164.28 109.89 164.37 109.97C164.45 110.06 164.5 110.17 164.5 110.29C164.5 110.41 164.45 110.52 164.37 110.61C164.28 110.69 164.17 110.74 164.05 110.74Z" fill="#263238" fill-opacity="1.000000" fill-rule="nonzero"/>
	<path id="Vector" d="M164.05 116.73L140.24 116.73C140.13 116.73 140.01 116.68 139.93 116.59C139.84 116.51 139.8 116.4 139.8 116.28C139.8 116.16 139.84 116.05 139.93 115.96C140.01 115.88 140.13 115.83 140.24 115.83L164.05 115.83C164.17 115.83 164.28 115.88 164.37 115.96C164.45 116.05 164.5 116.16 164.5 116.28C164.5 116.4 164.45 116.51 164.37 116.59C164.28 116.68 164.17 116.73 164.05 116.73Z" fill="#263238" fill-opacity="1.000000" fill-rule="nonzero"/>
	<path id="Vector" d="M125.66 150.1L152.6 127.71L179.41 150.1L125.66 150.1Z" fill="#397DF6" fill-opacity="1.000000" fill-rule="nonzero"/>
	<path id="Vector" d="M179.41 150.55L125.66 150.55C125.57 150.55 125.49 150.52 125.41 150.47C125.34 150.42 125.28 150.34 125.25 150.26C125.22 150.17 125.21 150.08 125.24 149.99C125.26 149.9 125.31 149.82 125.38 149.76L152.31 127.36C152.39 127.3 152.49 127.26 152.6 127.26C152.7 127.26 152.8 127.3 152.88 127.36L179.7 149.75C179.77 149.81 179.82 149.89 179.84 149.98C179.87 150.07 179.86 150.16 179.83 150.25C179.8 150.33 179.74 150.41 179.67 150.46C179.6 150.51 179.51 150.54 179.42 150.54L179.41 150.55ZM126.9 149.66L178.17 149.66L152.6 128.29L126.9 149.66Z" fill="#263238" fill-opacity="1.000000" fill-rule="nonzero"/>
	<path id="Vector" d="M284.55 145.53C284.55 145.53 281.61 161.54 281.16 166.28C280.71 171.02 280.27 190.3 283.65 203.38C285.67 211.23 288.46 218.86 291.99 226.16C291.99 226.16 294.24 235.41 295.56 237.89C296.89 240.37 308.21 259.54 308.21 259.54C308.21 259.54 307.53 267.43 307.08 268.79C306.64 270.14 305.05 278.48 305.5 280.96C305.96 283.44 306.63 285.02 305.95 288.18C305.27 291.34 304.37 294.49 305.95 297.2C307.53 299.92 311.38 300.13 312.5 298.55C313.51 297.25 314.26 295.77 314.68 294.18C315.11 292.59 315.21 290.93 314.99 289.3C314.31 284.84 312.04 278.93 312.5 276.45C312.96 274.5 313.64 272.61 314.53 270.81C314.53 270.81 323.12 288.4 323.57 289.76C324.01 291.12 324.93 296.75 325.36 298.55C325.79 300.35 328.3 297.87 329.2 296.76C330.1 295.66 333.49 290.9 332.78 287.74C332.06 284.58 330.09 278.95 330.09 278.95L333.46 283.41C333.53 283.52 333.63 283.59 333.75 283.63C333.87 283.66 334 283.65 334.11 283.6C334.22 283.54 334.31 283.45 334.35 283.33C334.4 283.22 334.4 283.09 334.36 282.98C333.72 280.81 332.87 277.93 332.57 277.39C332.11 276.5 331.89 273.55 330.08 271.08C328.28 268.61 323.31 270.85 323.31 270.85L319.47 258.67C319.47 258.67 326.47 235.67 325.11 228C323.76 220.32 323.09 214.7 323.53 213.12C323.98 211.54 332.57 187.75 332.57 182.78C332.57 177.81 332.79 165.86 330.08 159.32C328.24 154.99 326.13 150.77 323.76 146.7L284.55 145.53Z" fill="#FFFFFF" fill-opacity="1.000000" fill-rule="nonzero"/>
	<path id="Vector" d="M310.17 299.99L309.94 299.99C309.06 299.95 308.21 299.69 307.46 299.25C306.71 298.8 306.07 298.18 305.62 297.43C304.09 294.81 304.72 291.81 305.39 288.91L305.56 288.09C305.98 286.23 305.92 284.29 305.4 282.46C305.31 282.01 305.21 281.57 305.11 281.05C304.64 278.46 306.25 270.03 306.71 268.65C307.23 265.67 307.59 262.67 307.81 259.66C306.83 258 296.51 240.47 295.22 238.11C293.93 235.75 291.78 227.14 291.58 226.33C288.06 219.02 285.25 211.39 283.21 203.54C279.88 190.68 280.22 171.47 280.71 166.29C281.16 161.59 284.07 145.67 284.11 145.51L284.17 145.13L284.56 145.13L324.1 146.27L324.23 146.48C326.61 150.57 328.73 154.81 330.59 159.16C333.15 165.36 333.12 176.4 333.11 181.71L333.11 182.79C333.11 186.89 327.46 203.31 325.06 210.29C324.52 211.84 324.17 212.97 324.06 213.25C323.83 214.05 323.73 217.04 325.65 227.93C326.97 235.39 320.66 256.59 320.04 258.67L323.68 270.28C325.03 269.76 328.87 268.54 330.54 270.84C331.59 272.4 332.33 274.15 332.7 276C332.79 276.41 332.92 276.82 333.07 277.22C333.29 277.67 333.9 279.57 334.86 282.88C334.92 283.09 334.91 283.32 334.82 283.52C334.74 283.72 334.58 283.89 334.38 283.99C334.18 284.09 333.96 284.12 333.74 284.06C333.53 284.01 333.34 283.89 333.2 283.71L331.52 281.49C332.15 283.39 332.95 285.95 333.3 287.73C334.1 291.45 329.78 296.9 329.6 297.12C329.42 297.35 327.24 300.01 325.84 299.71C325.61 299.66 325.4 299.54 325.24 299.37C325.08 299.2 324.98 298.99 324.94 298.76C324.75 297.97 324.47 296.49 324.18 294.92C323.81 292.95 323.39 290.74 323.15 290C322.81 288.99 317.59 278.2 314.54 271.94C313.84 273.44 313.3 275.01 312.94 276.63C312.69 278.01 313.38 280.68 314.11 283.51C314.65 285.43 315.09 287.38 315.42 289.34C315.67 291.02 315.56 292.74 315.12 294.38C314.68 296.03 313.92 297.57 312.87 298.91C312.53 299.28 312.11 299.57 311.64 299.76C311.18 299.95 310.67 300.02 310.17 299.99ZM284.92 146C284.47 148.44 282.01 162.06 281.61 166.34C281.12 171.47 280.78 190.52 284.07 203.28C286.1 211.09 288.89 218.69 292.4 225.96L292.4 226.05C292.4 226.15 294.66 235.27 295.97 237.66C297.29 240.04 308.49 259.07 308.61 259.3L308.68 259.41L308.68 259.56C308.68 259.89 308 267.52 307.53 268.91C307.07 270.3 305.53 278.45 305.97 280.86C306.06 281.35 306.15 281.81 306.24 282.24C306.79 284.2 306.85 286.26 306.41 288.25L306.24 289.07C305.6 291.94 305.01 294.63 306.36 296.95C306.74 297.57 307.26 298.09 307.88 298.46C308.51 298.82 309.21 299.04 309.94 299.07C310.34 299.12 310.76 299.08 311.14 298.94C311.53 298.8 311.87 298.57 312.15 298.27C313.14 297.02 313.86 295.59 314.27 294.06C314.69 292.52 314.79 290.92 314.57 289.35C314.29 287.56 313.77 285.55 313.27 283.61C312.51 280.68 311.79 277.92 312.08 276.34C312.54 274.35 313.24 272.42 314.16 270.59L314.56 269.78L314.95 270.59C315.31 271.31 323.56 288.22 324.01 289.59C324.27 290.38 324.68 292.54 325.07 294.63C325.37 296.18 325.63 297.65 325.83 298.42C325.87 298.59 325.94 298.69 326.01 298.71C326.48 298.81 327.85 297.73 328.89 296.44C330.35 294.6 332.98 290.45 332.41 287.79C331.75 284.7 329.73 279.11 329.73 279.06L328.74 276.31L333.88 283.08L334.39 282.91L333.96 283.04C332.72 278.78 332.35 277.76 332.23 277.52C332.04 277.07 331.9 276.6 331.8 276.12C331.45 274.39 330.76 272.75 329.78 271.28C328.22 269.12 323.6 271.17 323.52 271.2L323.07 271.4L319.04 258.61L319.04 258.48C319.11 258.25 326 235.5 324.68 228.02C323.18 219.58 322.66 214.5 323.1 212.93C323.19 212.63 323.56 211.56 324.11 209.94C326.3 203.58 332.16 186.68 332.16 182.72L332.16 181.65C332.16 176.4 332.2 165.47 329.71 159.45C327.91 155.2 325.84 151.08 323.53 147.09L284.92 146Z" fill="#263238" fill-opacity="1.000000" fill-rule="nonzero"/>
	<path id="Vector" d="M322.58 268.22L319.55 258.64C319.55 258.64 326.56 235.64 325.2 227.96C323.85 220.29 323.17 214.67 323.62 213.09C324.07 211.51 331.86 187.65 332.66 182.74C334.07 174.85 333.21 166.71 330.17 159.29C328.33 154.95 326.22 150.74 323.85 146.67L284.51 145.53C284.51 145.53 281.57 161.54 281.13 166.28C280.68 171.02 280.23 190.3 283.61 203.38C285.64 211.23 288.45 218.86 291.99 226.16C291.99 226.16 294.24 235.41 295.56 237.89C296.88 240.37 308.21 259.54 308.21 259.54C308.21 259.54 307.82 264.07 307.43 266.86C309 267.99 310.81 268.73 312.72 269.01L314.51 270.79C314.51 270.79 319.7 273.07 322.58 268.22Z" fill="#263238" fill-opacity="1.000000" fill-rule="nonzero"/>
	<path id="Vector" d="M317.34 271.78C316.33 271.77 315.34 271.58 314.41 271.22L314.27 271.13L312.58 269.44C310.65 269.13 308.81 268.37 307.22 267.22L306.98 267.07L307.02 266.79C307.36 264.33 307.71 260.43 307.78 259.66C306.81 258 296.48 240.47 295.2 238.11C293.91 235.75 291.75 227.14 291.56 226.33C288.04 219.02 285.24 211.39 283.21 203.54C279.88 190.68 280.22 171.47 280.71 166.29C281.16 161.59 284.07 145.67 284.11 145.51L284.17 145.13L284.56 145.13L324.1 146.27L324.23 146.48C326.61 150.57 328.73 154.81 330.59 159.16C333.64 166.66 334.51 174.85 333.11 182.82C332.47 186.76 327.51 202.32 325.13 209.81C324.55 211.64 324.15 212.89 324.06 213.21C323.83 214.01 323.73 217 325.65 227.89C326.97 235.35 320.66 256.56 320.04 258.64L323.08 268.29L322.98 268.46C322.44 269.47 321.62 270.32 320.63 270.91C319.63 271.5 318.49 271.79 317.34 271.78ZM314.84 270.44C315.47 270.69 319.61 272.14 322.09 268.17L319.09 258.64L319.09 258.5C319.16 258.28 326.05 235.52 324.73 228.04C323.24 219.61 322.71 214.53 323.16 212.96C323.25 212.64 323.65 211.38 324.24 209.54C326.43 202.66 331.55 186.54 332.19 182.68C333.57 174.87 332.71 166.82 329.73 159.47C327.93 155.23 325.86 151.1 323.55 147.11L284.88 146C284.43 148.44 281.97 162.06 281.57 166.34C281.08 171.47 280.74 190.52 284.04 203.28C286.07 211.09 288.85 218.69 292.36 225.96L292.36 226.05C292.36 226.15 294.62 235.27 295.94 237.66C297.25 240.04 308.45 259.07 308.58 259.3L308.65 259.41L308.65 259.56C308.65 259.6 308.27 263.84 307.91 266.62C309.34 267.64 311.01 268.3 312.75 268.54L312.91 268.54L314.84 270.44Z" fill="#263238" fill-opacity="1.000000" fill-rule="nonzero"/>
	<path id="Vector" d="M316.75 249.63C316.65 249.63 316.55 249.6 316.48 249.54C316.4 249.48 316.34 249.4 316.32 249.3C315.29 245.36 313.89 240.05 313.03 237.11C311.47 231.76 306.54 218.11 306.49 217.97C306.48 217.93 306.48 217.9 306.49 217.86L302.44 176.92L294.94 172.08C294.84 172.01 294.77 171.91 294.74 171.8C294.72 171.68 294.74 171.56 294.8 171.46C294.87 171.36 294.97 171.29 295.09 171.27C295.2 171.24 295.33 171.26 295.43 171.33L303.11 176.29C303.16 176.33 303.21 176.37 303.24 176.43C303.28 176.49 303.3 176.55 303.3 176.62L307.36 217.72C307.7 218.65 312.39 231.67 313.91 236.86C314.8 239.81 316.17 245.13 317.19 249.08C317.22 249.19 317.21 249.31 317.15 249.42C317.09 249.52 317 249.59 316.88 249.62L316.75 249.63Z" fill="#FFFFFF" fill-opacity="1.000000" fill-rule="nonzero"/>
	<path id="Vector" d="M318.43 256.15C318.33 256.15 318.23 256.12 318.15 256.06C318.07 256 318.02 255.91 317.99 255.82C317.99 255.82 317.66 254.5 317.15 252.52C317.12 252.4 317.14 252.27 317.2 252.17C317.26 252.06 317.37 251.99 317.49 251.96C317.6 251.93 317.73 251.95 317.83 252.01C317.94 252.07 318.01 252.17 318.04 252.29C318.55 254.27 318.88 255.59 318.88 255.59C318.9 255.65 318.9 255.71 318.89 255.77C318.89 255.83 318.87 255.88 318.84 255.93C318.81 255.98 318.77 256.03 318.72 256.06C318.67 256.1 318.62 256.12 318.56 256.14L318.43 256.15Z" fill="#FFFFFF" fill-opacity="1.000000" fill-rule="nonzero"/>
	<path id="Vector" d="M305.1 178.01L304.96 178.01C304.9 177.99 304.85 177.96 304.81 177.92C304.76 177.88 304.72 177.84 304.7 177.78C304.67 177.73 304.66 177.67 304.66 177.61C304.65 177.55 304.66 177.5 304.68 177.44C305.57 174.88 307.44 171.26 310.36 166.73C310.38 166.67 310.42 166.62 310.47 166.58C310.52 166.54 310.57 166.51 310.64 166.49C310.7 166.48 310.76 166.47 310.82 166.48C310.89 166.49 310.95 166.51 311 166.54C311.05 166.58 311.1 166.62 311.13 166.68C311.17 166.73 311.19 166.79 311.2 166.85C311.21 166.91 311.21 166.98 311.19 167.04C311.18 167.1 311.15 167.15 311.11 167.2C308.87 170.5 307 174.04 305.53 177.75C305.49 177.83 305.43 177.9 305.35 177.95C305.28 177.99 305.19 178.02 305.1 178.01Z" fill="#FFFFFF" fill-opacity="1.000000" fill-rule="nonzero"/>
	<path id="Vector" d="M312.62 164.5C312.53 164.5 312.44 164.47 312.37 164.42C312.27 164.35 312.2 164.25 312.18 164.14C312.15 164.02 312.18 163.9 312.24 163.8C313.52 161.91 314.44 160.63 314.45 160.62C314.52 160.52 314.63 160.46 314.74 160.44C314.86 160.42 314.98 160.45 315.08 160.52C315.17 160.59 315.24 160.69 315.26 160.81C315.27 160.93 315.24 161.05 315.17 161.14C315.17 161.14 314.28 162.42 312.98 164.3C312.94 164.36 312.89 164.41 312.82 164.45C312.76 164.48 312.69 164.5 312.62 164.5Z" fill="#FFFFFF" fill-opacity="1.000000" fill-rule="nonzero"/>
	<path id="Vector" d="M332.66 277.35C332.2 276.46 331.98 273.51 330.17 271.04C329.91 270.7 329.57 270.42 329.18 270.22C328.79 270.02 328.36 269.91 327.92 269.9C329.46 273.78 328.03 276.89 328.82 279.83C329.71 283.22 330.4 286.14 329.05 288.63C327.7 291.11 324.3 292.46 324.3 292.46L324.24 292.46C324.66 294.64 325.13 297.38 325.43 298.54C325.88 300.32 328.37 297.86 329.27 296.76C330.17 295.65 333.56 290.89 332.85 287.73C332.13 284.57 330.17 278.94 330.17 278.94L334.08 284.1C334.13 284.16 334.19 284.2 334.27 284.22C334.34 284.24 334.42 284.23 334.49 284.19C334.56 284.16 334.61 284.1 334.64 284.04C334.67 283.97 334.68 283.89 334.66 283.81C334 281.62 332.97 277.98 332.66 277.35Z" fill="#263238" fill-opacity="1.000000" fill-rule="nonzero"/>
	<path id="Vector" d="M326.1 299.64C326.02 299.65 325.94 299.65 325.86 299.64C325.63 299.59 325.42 299.47 325.26 299.3C325.1 299.13 325 298.92 324.96 298.68C324.77 297.9 324.49 296.42 324.19 294.85C324.05 294.09 323.91 293.3 323.76 292.59L323.68 292.14L324.12 292.06C324.12 292.06 327.36 290.75 328.59 288.44C329.83 286.13 329.26 283.49 328.32 279.98C328.04 278.66 327.97 277.31 328.11 275.97C328.34 273.99 328.11 271.98 327.44 270.1L327.17 269.42L327.89 269.48C328.4 269.5 328.89 269.63 329.33 269.85C329.78 270.08 330.16 270.41 330.47 270.8C331.52 272.36 332.26 274.12 332.63 275.96C332.72 276.38 332.84 276.79 333 277.18C333.24 277.68 333.89 279.86 335.04 283.71C335.09 283.88 335.07 284.07 335 284.23C334.92 284.4 334.8 284.53 334.63 284.61C334.47 284.69 334.29 284.71 334.11 284.67C333.94 284.63 333.78 284.53 333.67 284.39L331.44 281.45C332.08 283.35 332.87 285.91 333.23 287.7C334.03 291.42 329.71 296.86 329.53 297.09C329.35 297.31 327.48 299.64 326.1 299.64ZM324.75 292.79C324.86 293.41 324.99 294.06 325.1 294.7C325.4 296.25 325.67 297.72 325.87 298.48C325.91 298.66 325.97 298.76 326.04 298.77C326.52 298.87 327.89 297.79 328.92 296.51C330.39 294.67 333.02 290.51 332.44 287.86C331.78 284.76 329.76 279.17 329.76 279.12L329.03 277.08C328.98 277.98 329.05 278.88 329.26 279.75C330.22 283.32 330.84 286.31 329.44 288.88C328.23 291.01 325.62 292.37 324.75 292.79ZM329.03 276.73L334.05 283.34C333.12 280.08 332.46 277.99 332.27 277.59C332.08 277.13 331.93 276.66 331.84 276.18C331.48 274.45 330.8 272.81 329.82 271.34C329.53 270.93 329.12 270.62 328.64 270.48C329.13 272.27 329.29 274.14 329.1 275.99C329.05 276.22 329.04 276.46 329.03 276.73Z" fill="#263238" fill-opacity="1.000000" fill-rule="nonzero"/>
	<path id="Vector" d="M315.09 289.79C314.76 290.87 314.33 292.19 313.91 293.36C313.02 295.85 310.07 296.04 308.04 293.82C306.76 292.21 306.05 290.23 306 288.18C305.32 291.34 304.42 294.49 306 297.2C307.59 299.92 311.43 300.13 312.56 298.55C314.49 296.06 315.4 292.93 315.09 289.79Z" fill="#263238" fill-opacity="1.000000" fill-rule="nonzero"/>
	<path id="Vector" d="M310.17 299.99L309.94 299.99C309.06 299.95 308.21 299.69 307.46 299.25C306.71 298.8 306.07 298.18 305.62 297.43C304.09 294.81 304.72 291.81 305.39 288.91L306.44 284.02L306.44 288.19C306.49 290.13 307.16 292.01 308.36 293.54C308.74 294.04 309.25 294.42 309.82 294.66C310.4 294.9 311.02 294.99 311.64 294.91C312.07 294.82 312.47 294.61 312.79 294.32C313.11 294.03 313.35 293.66 313.48 293.24C313.84 292.26 314.24 291.06 314.66 289.67L315.3 287.62L315.53 289.76C315.85 293 314.91 296.24 312.91 298.82C312.58 299.21 312.16 299.52 311.68 299.73C311.2 299.93 310.69 300.02 310.17 299.99ZM305.92 290.68C305.48 292.95 305.29 295.09 306.39 296.97C306.76 297.59 307.29 298.1 307.91 298.47C308.53 298.84 309.24 299.05 309.96 299.09C310.37 299.14 310.78 299.1 311.17 298.96C311.55 298.82 311.9 298.59 312.18 298.29C313.41 296.67 314.23 294.78 314.58 292.78L314.32 293.52C314.14 294.08 313.81 294.58 313.37 294.97C312.93 295.37 312.39 295.64 311.81 295.76C311.04 295.86 310.26 295.77 309.53 295.48C308.81 295.19 308.18 294.72 307.69 294.11C306.85 293.12 306.24 291.94 305.92 290.68Z" fill="#263238" fill-opacity="1.000000" fill-rule="nonzero"/>
	<path id="Vector" d="M281.18 90.08C281.18 90.08 277.75 91.28 277.89 91.72C278.03 92.17 272.41 120.28 272.41 120.28C272.41 120.28 268.41 130.64 268.83 134.33C269.25 138.03 272.41 142.46 275.94 142.46C277.09 142.49 278.22 142.2 279.21 141.62C280.2 141.05 281.01 140.22 281.56 139.21C282.31 138.18 284.83 133.3 284.83 133.3C284.83 133.3 283.93 142.61 283.64 143.5C283.34 144.38 281.85 146.75 282.6 147.49C283.74 148.45 285.04 149.21 286.45 149.71C293.9 151.24 301.5 151.89 309.1 151.63C319.18 151.04 325.25 148.38 325.25 148.38C325.58 147.27 325.98 146.18 326.44 145.12C326.73 144.68 327.33 143.94 327.33 143.94C327.33 143.94 336.81 142.91 337.4 142.31C337.99 141.71 339.62 139.21 339.47 135.22C339.32 131.22 340.8 96.63 340.07 95.89C338.74 94.95 337.33 94.11 335.86 93.39L318.71 83.82L293.12 87.17L281.18 90.08Z" fill="#397DF6" fill-opacity="1.000000" fill-rule="nonzero"/>
	<path id="Vector" d="M305.57 152.15C299.12 152.09 292.68 151.4 286.35 150.11C284.88 149.59 283.51 148.8 282.31 147.78C281.54 147 282.31 145.44 282.87 144.21C283.01 143.92 283.13 143.62 283.24 143.32C283.4 142.82 283.83 138.94 284.14 135.5C283.35 136.98 282.35 138.82 281.91 139.44L281.78 139.63C281.18 140.64 280.32 141.48 279.29 142.05C278.26 142.62 277.1 142.91 275.92 142.87C272.19 142.87 268.85 138.41 268.37 134.35C267.91 130.58 271.78 120.52 271.94 120.07C274.08 109.36 277.31 93.02 277.39 91.77C277.29 91.42 277.39 90.88 280.96 89.64L281.01 89.64L292.97 86.7L318.6 83.34C318.69 83.33 318.79 83.35 318.88 83.4L336.03 92.97C337.54 93.7 338.98 94.56 340.34 95.54C340.79 96 340.84 99.62 340.19 121.38C339.99 127.99 339.82 133.7 339.87 135.16C340.03 139.3 338.34 141.93 337.67 142.6C337.01 143.27 331.14 143.93 327.52 144.33C327.34 144.56 326.97 145.02 326.77 145.34C326.33 146.36 325.95 147.41 325.64 148.48C325.62 148.54 325.59 148.59 325.54 148.64C325.5 148.68 325.45 148.72 325.39 148.75C325.14 148.86 319.13 151.42 309.1 152.04C307.98 152.12 306.78 152.15 305.57 152.15ZM284.84 132.82L284.96 132.82C285.06 132.85 285.15 132.92 285.2 133C285.26 133.09 285.29 133.19 285.28 133.3C285.18 134.25 284.39 142.69 284.07 143.6C283.99 143.84 283.83 144.17 283.66 144.54C283.34 145.21 282.59 146.8 282.93 147.13C284.02 148.04 285.25 148.75 286.59 149.24C293.99 150.76 301.54 151.4 309.1 151.14C314.49 150.91 319.82 149.85 324.9 148C325.22 146.91 325.61 145.86 326.07 144.83C326.38 144.38 326.97 143.65 326.97 143.61C327 143.57 327.05 143.53 327.1 143.5C327.15 143.47 327.21 143.46 327.27 143.45C331.69 142.97 336.57 142.27 337.1 141.94C337.63 141.41 339.16 138.99 339.02 135.19C338.96 133.69 339.13 127.97 339.33 121.35C339.61 111.82 340.04 97.5 339.69 96.11C338.4 95.22 337.05 94.43 335.65 93.74L318.61 84.24L293.18 87.57L281.28 90.49C280.24 90.82 279.24 91.27 278.29 91.81C278.2 92.71 277.48 97.08 272.82 120.33C272.76 120.51 268.85 130.69 269.25 134.23C269.64 137.78 272.69 141.97 275.91 141.97C276.95 142 277.97 141.75 278.87 141.25C279.77 140.74 280.52 140 281.04 139.11L281.18 138.9C281.89 137.91 284.38 133.09 284.4 133.05C284.44 132.97 284.5 132.91 284.58 132.87C284.66 132.83 284.75 132.81 284.84 132.82ZM278.3 91.59C278.31 91.66 278.31 91.73 278.3 91.8C278.33 91.73 278.34 91.66 278.32 91.59L278.3 91.59Z" fill="#263238" fill-opacity="1.000000" fill-rule="nonzero"/>
	<path id="Vector" d="M284.84 106.83C284.08 103.32 281.04 97.71 281.01 97.65L281.79 97.23C281.92 97.46 284.93 103.01 285.71 106.64L284.84 106.83Z" fill="#263238" fill-opacity="1.000000" fill-rule="nonzero"/>
	<path id="Vector" d="M280.37 125.58C280.29 125.58 280.23 125.56 280.16 125.53C280.1 125.5 280.04 125.45 280 125.4C278.59 123.43 274.75 122.92 274.71 122.91C274.65 122.9 274.59 122.88 274.54 122.85C274.49 122.82 274.44 122.78 274.41 122.74C274.37 122.69 274.35 122.64 274.33 122.58C274.31 122.52 274.31 122.46 274.32 122.4C274.32 122.35 274.34 122.29 274.37 122.24C274.4 122.19 274.44 122.14 274.49 122.11C274.54 122.07 274.59 122.04 274.65 122.03C274.7 122.01 274.76 122.01 274.82 122.02C274.99 122.02 279.09 122.58 280.73 124.86C280.77 124.91 280.79 124.97 280.8 125.02C280.82 125.08 280.82 125.14 280.81 125.2C280.8 125.26 280.78 125.31 280.75 125.36C280.71 125.41 280.67 125.45 280.63 125.49C280.55 125.54 280.46 125.57 280.37 125.58Z" fill="#263238" fill-opacity="1.000000" fill-rule="nonzero"/>
	<path id="Vector" d="M281.53 124.63C281.44 124.63 281.36 124.61 281.28 124.56C281.21 124.52 281.15 124.45 281.12 124.37C280.54 123.61 279.78 123 278.91 122.59C278.8 122.53 278.72 122.44 278.69 122.33C278.65 122.21 278.66 122.09 278.72 121.98C278.77 121.88 278.87 121.8 278.98 121.76C279.09 121.73 279.21 121.74 279.32 121.79C279.54 121.91 281.46 122.93 281.94 123.99C281.99 124.1 281.99 124.22 281.95 124.33C281.9 124.44 281.82 124.53 281.72 124.58C281.66 124.61 281.59 124.63 281.53 124.63Z" fill="#263238" fill-opacity="1.000000" fill-rule="nonzero"/>
	<path id="Vector" d="M284.84 133.72C284.79 133.73 284.73 133.73 284.68 133.72C284.63 133.7 284.57 133.67 284.53 133.63C284.49 133.59 284.45 133.54 284.43 133.49C284.4 133.43 284.39 133.38 284.39 133.32C284.38 133.26 284.39 133.2 284.42 133.14L285.24 130.81L282.83 125.87L281.13 126.47C281.07 126.5 281 126.51 280.93 126.5C280.86 126.49 280.79 126.47 280.73 126.43C280.73 126.43 277.3 124.17 274.99 124.57C272.69 124.97 271.18 128 271.17 128.02C271.12 128.13 271.02 128.21 270.91 128.25C270.8 128.29 270.68 128.28 270.57 128.23C270.46 128.17 270.38 128.08 270.34 127.97C270.3 127.86 270.31 127.74 270.36 127.63C270.43 127.49 272.15 124.17 274.83 123.69C277.18 123.27 280.24 125.06 281.04 125.56L282.9 124.89C283.01 124.86 283.12 124.86 283.23 124.9C283.33 124.94 283.41 125.02 283.46 125.12L286.14 130.58C286.16 130.64 286.18 130.7 286.18 130.76C286.18 130.82 286.16 130.88 286.14 130.93L285.25 133.45C285.21 133.53 285.15 133.6 285.08 133.64C285.01 133.69 284.92 133.72 284.84 133.72Z" fill="#263238" fill-opacity="1.000000" fill-rule="nonzero"/>
	<path id="Vector" d="M330.37 106.37C330.32 106.38 330.26 106.38 330.2 106.37C330.09 106.32 330.01 106.24 329.96 106.13C329.91 106.02 329.91 105.89 329.96 105.78C330.67 104.14 332.89 99.11 332.89 99.11L333.71 99.47C333.71 99.47 331.49 104.5 330.78 106.14C330.74 106.21 330.68 106.27 330.61 106.31C330.54 106.36 330.45 106.38 330.37 106.37Z" fill="#263238" fill-opacity="1.000000" fill-rule="nonzero"/>
	<path id="Vector" d="M327.35 144.36C327.24 144.36 327.13 144.32 327.04 144.24L318.43 136.12C318.39 136.08 318.35 136.03 318.33 135.97C318.31 135.92 318.3 135.86 318.3 135.8C318.3 135.74 318.31 135.68 318.33 135.63C318.35 135.57 318.39 135.53 318.43 135.48C318.47 135.44 318.52 135.41 318.57 135.39C318.63 135.36 318.68 135.35 318.74 135.35C318.8 135.35 318.86 135.36 318.91 135.39C318.96 135.41 319.01 135.44 319.05 135.48L327.67 143.61C327.74 143.67 327.79 143.75 327.81 143.83C327.83 143.92 327.82 144.01 327.79 144.1C327.75 144.18 327.7 144.25 327.62 144.31C327.55 144.36 327.46 144.38 327.37 144.38L327.35 144.36Z" fill="#263238" fill-opacity="1.000000" fill-rule="nonzero"/>
	<path id="Vector" d="M323.97 143.16C323.9 143.17 323.83 143.17 323.76 143.16L315.14 138.7C315.03 138.64 314.95 138.55 314.92 138.44C314.88 138.32 314.89 138.2 314.95 138.09C315 137.99 315.1 137.91 315.21 137.87C315.32 137.84 315.44 137.85 315.55 137.9L324.18 142.37C324.26 142.41 324.33 142.49 324.37 142.58C324.41 142.67 324.42 142.77 324.4 142.86C324.37 142.96 324.32 143.05 324.24 143.11C324.16 143.17 324.07 143.2 323.97 143.2L323.97 143.16Z" fill="#263238" fill-opacity="1.000000" fill-rule="nonzero"/>
	<path id="Vector" d="M290.67 150.55C290.56 150.55 290.46 150.51 290.37 150.43C290.29 150.36 290.24 150.26 290.23 150.15C290.22 150.03 290.26 149.91 290.33 149.82C290.4 149.73 290.51 149.67 290.63 149.66L313.44 147.2C313.5 147.19 313.56 147.2 313.61 147.22C313.67 147.23 313.72 147.26 313.77 147.29C313.82 147.33 313.85 147.38 313.88 147.43C313.91 147.48 313.93 147.54 313.93 147.59C313.94 147.71 313.91 147.83 313.84 147.92C313.76 148.01 313.66 148.07 313.54 148.09L290.73 150.55L290.67 150.55Z" fill="#263238" fill-opacity="1.000000" fill-rule="nonzero"/>
	<path id="Vector" d="M306.86 123.77L306.82 123.77C306.76 123.76 306.7 123.74 306.65 123.71C306.6 123.69 306.55 123.65 306.51 123.6C306.48 123.56 306.45 123.51 306.43 123.45C306.41 123.39 306.41 123.33 306.41 123.27C306.57 121.91 309.17 96.45 309.19 96.19C309.2 96.13 309.22 96.07 309.25 96.02C309.27 95.97 309.31 95.92 309.36 95.88C309.4 95.85 309.45 95.82 309.51 95.8C309.57 95.79 309.63 95.78 309.69 95.79C309.74 95.79 309.8 95.81 309.85 95.84C309.91 95.86 309.95 95.9 309.99 95.95C310.03 95.99 310.05 96.05 310.07 96.1C310.09 96.16 310.09 96.22 310.09 96.28C310.09 96.54 307.47 122 307.32 123.37C307.3 123.48 307.25 123.58 307.16 123.65C307.08 123.73 306.97 123.77 306.86 123.77Z" fill="#263238" fill-opacity="1.000000" fill-rule="nonzero"/>
	<path id="Vector" d="M304.71 142.24L304.66 142.24C304.6 142.23 304.55 142.22 304.49 142.19C304.44 142.16 304.4 142.12 304.36 142.08C304.32 142.03 304.29 141.98 304.28 141.92C304.26 141.87 304.25 141.81 304.26 141.75L305.03 133.29C305.04 133.17 305.1 133.07 305.19 132.99C305.28 132.92 305.39 132.88 305.51 132.89C305.57 132.89 305.63 132.91 305.68 132.93C305.73 132.96 305.78 133 305.82 133.04C305.85 133.09 305.88 133.14 305.9 133.19C305.92 133.25 305.93 133.31 305.92 133.37L305.14 141.83C305.14 141.94 305.09 142.04 305.01 142.12C304.92 142.2 304.82 142.24 304.71 142.24Z" fill="#263238" fill-opacity="1.000000" fill-rule="nonzero"/>
	<path id="Vector" d="M320.32 79.52L318.05 85.26L310.57 93.8L303.89 85L304.44 73.87L312.84 81.52L320.32 79.52Z" fill="#FFFFFF" fill-opacity="1.000000" fill-rule="nonzero"/>
	<path id="Vector" d="M310.54 94.51L303.44 85.14L303.44 84.98L304.04 72.91L312.98 81.03L321.07 78.86L318.39 85.56L310.54 94.51ZM304.35 84.84L310.61 93.08L317.68 85.05L319.59 80.21L312.73 82.05L304.85 74.91L304.35 84.84Z" fill="#263238" fill-opacity="1.000000" fill-rule="nonzero"/>
	<path id="Vector" d="M313.52 44.31C313.52 44.31 300.35 49.06 298.54 52.8C297 56.34 295.83 60.02 295.03 63.79C295.03 64.25 288.77 66.74 287.53 68.66C286.3 70.58 287.64 76.26 287.53 77.85C287.43 79.44 281.63 81.25 281.06 84.75C280.68 86.52 280.72 88.36 281.18 90.11L291.28 88.52C291.28 88.52 297.86 91.13 301.38 89.77C304.9 88.41 305.23 81.61 305.01 79.35C304.79 77.08 304.44 73.9 304.44 73.9L309.1 60.75L319.64 57.57L326.34 63.82L320.19 79.95C320.19 79.95 318.25 83.87 318.59 84.89C318.93 85.91 322.03 86.93 322.03 86.93L335.88 93.39C336.23 92.34 336.35 91.22 336.22 90.11C335.99 88.32 333.04 84.44 333.04 83.31C333.04 82.18 336.9 77.76 335.08 73.79C333.27 69.83 331.34 67.67 330.32 65.64C329.3 63.6 331.21 59.74 329.18 54.76C327.15 49.78 320.44 45.47 318.63 44.45C316.81 43.43 313.52 44.31 313.52 44.31Z" fill="#263238" fill-opacity="1.000000" fill-rule="nonzero"/>
	<path id="Vector" d="M336.12 93.97L321.82 87.32C321.31 87.15 318.53 86.17 318.14 85C317.76 83.84 319.29 80.68 319.77 79.73L325.79 63.91L319.54 58.06L309.44 61.09L304.9 73.93C304.97 74.49 305.26 77.24 305.46 79.28C305.65 81.18 305.55 88.62 301.55 90.16C298.13 91.48 292.17 89.32 291.24 88.96L280.89 90.58L280.77 90.24C280.28 88.43 280.23 86.53 280.63 84.69C281 82.43 283.24 80.89 285.04 79.65C285.99 79 287.06 78.26 287.1 77.86C287.09 77.08 287.02 76.29 286.9 75.51C286.6 73.03 286.22 69.94 287.17 68.48C288.01 67.17 290.74 65.73 292.8 64.67C293.41 64.37 294.01 64.04 294.59 63.67C295.41 59.89 296.61 56.2 298.16 52.66C300.04 48.81 312.85 44.14 313.36 43.94C313.49 43.94 316.85 43 318.8 44.09C318.88 44.09 327.19 48.85 329.53 54.62C330.46 57.08 330.77 59.72 330.42 62.32C330.24 63.37 330.31 64.45 330.63 65.47C331.11 66.3 331.64 67.11 332.21 67.89C333.45 69.69 334.54 71.59 335.47 73.57C336.87 76.62 335.14 79.88 334.12 81.83C333.84 82.28 333.62 82.77 333.46 83.27C333.78 84.22 334.23 85.12 334.79 85.95C335.62 87.19 336.25 88.56 336.64 90C336.78 91.18 336.66 92.38 336.27 93.5L336.12 93.97ZM319.77 57.06L326.87 63.67L320.61 80.09C319.72 81.93 318.82 84.2 319.01 84.72C319.2 85.24 320.8 86.02 322.17 86.5L335.58 92.75C335.8 91.9 335.86 91.02 335.75 90.15C335.35 88.83 334.74 87.57 333.96 86.43C333.07 84.89 332.53 83.92 332.53 83.29C332.65 82.63 332.91 82 333.29 81.43C334.3 79.52 335.82 76.62 334.61 73.96C333.7 72.02 332.64 70.16 331.43 68.4C330.85 67.57 330.33 66.7 329.85 65.82C329.46 64.67 329.36 63.44 329.57 62.25C329.87 59.78 329.56 57.28 328.67 54.95C326.42 49.47 318.39 44.9 318.31 44.86C316.74 43.97 313.8 44.73 313.56 44.79C313.01 44.99 300.53 49.58 298.84 53.05C297.33 56.53 296.17 60.15 295.37 63.86C295.37 64.27 295.02 64.48 293.1 65.47C291.19 66.46 288.53 67.85 287.81 68.97C287.1 70.08 287.43 73.31 287.68 75.4C287.81 76.24 287.88 77.08 287.88 77.93C287.82 78.82 286.77 79.52 285.43 80.43C283.78 81.58 281.72 83 281.4 84.9C281.1 86.47 281.1 88.08 281.4 89.65L291.24 88.1L291.35 88.15C291.41 88.15 297.81 90.67 301.13 89.4C304.45 88.12 304.71 81.66 304.47 79.44C304.24 77.21 303.91 74 303.91 74L303.91 73.89L303.91 73.8L308.64 60.42L319.77 57.06Z" fill="#263238" fill-opacity="1.000000" fill-rule="nonzero"/>
	<path id="Vector" d="M318.29 53.48C318.29 53.48 308.08 58.02 307.28 60.17C306.49 62.32 304.33 72.3 304.44 73.87C304.54 75.45 311.37 83.62 312.73 83.85C314.08 84.09 321.08 80.03 322.33 79.12C323.59 78.21 327.7 64.58 327.59 62.43C327.48 60.28 319.42 53.61 318.29 53.48Z" fill="#FFFFFF" fill-opacity="1.000000" fill-rule="nonzero"/>
	<path id="Vector" d="M312.81 84.3L312.65 84.3C311.08 84.04 304.13 75.7 303.99 73.92C303.86 72.14 306.09 62.09 306.86 60.02C307.69 57.76 317.04 53.55 318.11 53.09L318.21 53.04L318.33 53.04C319.6 53.16 327.9 59.89 328.04 62.41C328.15 64.63 324.01 78.47 322.59 79.48C321.69 80.15 314.74 84.3 312.81 84.3ZM318.33 53.95C314.43 55.74 308.22 58.9 307.7 60.33C306.89 62.51 304.78 72.34 304.89 73.85C304.98 75.21 311.56 83.17 312.8 83.41C313.83 83.59 320.47 79.93 322.07 78.77C323.09 78 327.26 64.58 327.14 62.46C327.04 60.59 319.56 54.43 318.33 53.95Z" fill="#263238" fill-opacity="1.000000" fill-rule="nonzero"/>
	<path id="Vector" d="M327.91 64.44C323.83 63.22 319.52 56.41 318.26 54.32C317.03 56.02 313.17 60.8 307.29 62.35L307.06 61.46C313.77 59.68 317.87 53.27 317.91 53.2L318.31 52.56L318.68 53.22C318.72 53.31 323.76 62.23 328.17 63.55L327.91 64.44Z" fill="#263238" fill-opacity="1.000000" fill-rule="nonzero"/>
	<path id="Vector" d="M304.71 63.07L304.54 62.17C307.86 61.51 317.9 53.21 318 53.12L318.57 53.81C318.15 54.18 308.26 62.35 304.71 63.07Z" fill="#263238" fill-opacity="1.000000" fill-rule="nonzero"/>
	<path id="Vector" d="M316.06 75.11C315.78 75.12 315.5 75.09 315.23 75.03C315.11 74.99 315.01 74.92 314.95 74.81C314.89 74.7 314.87 74.57 314.91 74.46C314.94 74.34 315.02 74.24 315.13 74.18C315.23 74.12 315.36 74.1 315.48 74.13C315.97 74.21 316.46 74.19 316.94 74.07C317.42 73.95 317.87 73.72 318.26 73.42C318.35 73.36 318.47 73.33 318.58 73.35C318.69 73.37 318.79 73.43 318.86 73.52C318.93 73.61 318.97 73.72 318.95 73.83C318.94 73.95 318.89 74.05 318.8 74.13C318.01 74.72 317.05 75.06 316.06 75.11Z" fill="#263238" fill-opacity="1.000000" fill-rule="nonzero"/>
	<path id="Vector" d="M315.43 77.61C314.62 77.6 313.81 77.42 313.07 77.08C312.32 76.74 311.66 76.24 311.13 75.62C311.06 75.53 311.04 75.42 311.05 75.3C311.07 75.19 311.13 75.09 311.22 75.02C311.31 74.95 311.43 74.92 311.54 74.93C311.65 74.94 311.76 74.99 311.83 75.08C312.55 75.91 313.53 76.47 314.61 76.67C315.68 76.87 316.8 76.7 317.77 76.19C317.82 76.16 317.88 76.15 317.94 76.15C318 76.15 318.06 76.16 318.11 76.18C318.17 76.2 318.22 76.23 318.26 76.28C318.3 76.32 318.33 76.36 318.36 76.42C318.38 76.47 318.39 76.53 318.39 76.59C318.4 76.65 318.39 76.71 318.36 76.76C318.34 76.82 318.31 76.87 318.27 76.91C318.23 76.95 318.18 76.98 318.13 77.01C317.28 77.4 316.36 77.6 315.43 77.61Z" fill="#263238" fill-opacity="1.000000" fill-rule="nonzero"/>
	<path id="Vector" d="M315.34 64.92C315.25 64.92 315.16 64.89 315.09 64.84C315.09 64.84 312.4 63.06 309.96 64.2C309.85 64.25 309.73 64.26 309.62 64.21C309.51 64.17 309.42 64.09 309.37 63.98C309.32 63.87 309.31 63.75 309.35 63.64C309.4 63.53 309.48 63.44 309.59 63.39C312.51 62.06 315.46 64.02 315.59 64.1C315.64 64.14 315.68 64.18 315.71 64.23C315.74 64.28 315.76 64.33 315.78 64.39C315.79 64.45 315.79 64.51 315.77 64.57C315.76 64.62 315.74 64.68 315.7 64.73C315.66 64.79 315.61 64.84 315.54 64.87C315.48 64.91 315.41 64.92 315.34 64.92Z" fill="#263238" fill-opacity="1.000000" fill-rule="nonzero"/>
	<path id="Vector" d="M325.21 65.83C325.09 65.83 324.98 65.78 324.89 65.7C323.64 64.45 320.75 65.56 320.72 65.57C320.61 65.6 320.49 65.59 320.39 65.54C320.29 65.49 320.21 65.41 320.17 65.3C320.13 65.2 320.13 65.08 320.17 64.97C320.21 64.87 320.29 64.78 320.39 64.74C320.53 64.68 323.86 63.41 325.53 65.07C325.61 65.15 325.66 65.27 325.66 65.38C325.66 65.5 325.61 65.62 325.53 65.7C325.44 65.78 325.33 65.82 325.21 65.83Z" fill="#263238" fill-opacity="1.000000" fill-rule="nonzero"/>
	<path id="Vector" d="M313.29 67.89C313.22 68.57 312.73 69.08 312.2 69.03C311.91 68.95 311.67 68.77 311.51 68.52C311.35 68.27 311.3 67.97 311.37 67.68C311.45 67 311.93 66.49 312.47 66.55C312.75 66.62 312.99 66.8 313.15 67.05C313.3 67.3 313.35 67.6 313.29 67.89Z" fill="#263238" fill-opacity="1.000000" fill-rule="nonzero"/>
	<path id="Vector" d="M322.25 69.23C322.28 69.38 322.27 69.53 322.22 69.68C322.18 69.83 322.1 69.96 321.99 70.07C321.89 70.18 321.76 70.27 321.61 70.32C321.47 70.37 321.31 70.39 321.16 70.38C321.01 70.36 320.86 70.31 320.73 70.23C320.6 70.14 320.49 70.03 320.41 69.9C320.33 69.77 320.28 69.62 320.27 69.47C320.25 69.32 320.28 69.16 320.33 69.02C320.4 68.33 320.9 67.82 321.42 67.88C321.71 67.95 321.96 68.13 322.11 68.38C322.26 68.64 322.32 68.94 322.25 69.23Z" fill="#263238" fill-opacity="1.000000" fill-rule="nonzero"/>
	<path id="Vector" d="M300.15 89.93L304.16 97L309.24 91.93L303.89 85L300.15 89.93Z" fill="#FFFFFF" fill-opacity="1.000000" fill-rule="nonzero"/>
	<path id="Vector" d="M304.16 97.45L304.1 97.45C304.03 97.43 303.97 97.41 303.91 97.37C303.85 97.33 303.8 97.28 303.77 97.22L299.76 90.2C299.72 90.13 299.69 90.04 299.69 89.95C299.69 89.87 299.72 89.78 299.76 89.71L303.51 84.77C303.55 84.72 303.61 84.68 303.67 84.64C303.73 84.61 303.8 84.6 303.87 84.59C303.93 84.59 304 84.61 304.06 84.64C304.12 84.67 304.18 84.72 304.22 84.77L309.58 91.71C309.65 91.79 309.69 91.89 309.69 92C309.69 92.11 309.65 92.22 309.58 92.3L304.5 97.34C304.45 97.38 304.4 97.41 304.34 97.43C304.28 97.45 304.22 97.45 304.16 97.45ZM300.68 89.97L304.26 96.27L308.64 91.89L303.89 85.74L300.68 89.97Z" fill="#263238" fill-opacity="1.000000" fill-rule="nonzero"/>
	<path id="Vector" d="M312.44 92.2L316.05 97.4L322.03 86.91L318.72 83.79L312.44 92.2Z" fill="#FFFFFF" fill-opacity="1.000000" fill-rule="nonzero"/>
	<path id="Vector" d="M316.05 97.85C315.98 97.85 315.91 97.83 315.84 97.8C315.78 97.76 315.73 97.72 315.68 97.66L312.11 92.46C312.06 92.38 312.03 92.29 312.03 92.19C312.03 92.1 312.06 92.01 312.11 91.93L318.37 83.53C318.4 83.48 318.45 83.44 318.51 83.4C318.56 83.37 318.62 83.36 318.69 83.35C318.75 83.35 318.81 83.35 318.87 83.37C318.93 83.39 318.98 83.43 319.03 83.47L322.38 86.63C322.45 86.7 322.5 86.79 322.52 86.89C322.53 86.98 322.52 87.09 322.47 87.17L316.48 97.67C316.44 97.73 316.39 97.79 316.32 97.83C316.26 97.87 316.19 97.89 316.11 97.89L316.05 97.85ZM312.99 92.21L316.01 96.56L321.47 86.99L318.79 84.46L312.99 92.21Z" fill="#263238" fill-opacity="1.000000" fill-rule="nonzero"/>
	<path id="Vector" d="M295.54 127.46L287.68 127.46L286.69 109.31L296.52 109.31L295.54 127.46Z" fill="#FFFFFF" fill-opacity="1.000000" fill-rule="nonzero"/>
	<path id="Vector" d="M295.96 127.91L287.26 127.91L286.22 108.86L296.95 108.86L295.96 127.91ZM288.1 127.01L295.11 127.01L296.04 109.75L287.17 109.75L288.1 127.01Z" fill="#263238" fill-opacity="1.000000" fill-rule="nonzero"/>
	<path id="Vector" d="M285.66 107.76L297.38 107.76L297.38 110.51L285.66 110.51L285.66 107.76Z" fill="#263238" fill-opacity="1.000000" fill-rule="evenodd"/>
	<path id="Vector" d="M297.82 110.96L285.21 110.96L285.21 107.32L297.82 107.32L297.82 110.96ZM286.1 110.07L296.93 110.07L296.93 108.21L286.1 108.21L286.1 110.07Z" fill="#263238" fill-opacity="1.000000" fill-rule="nonzero"/>
	<path id="Vector" d="M287.3 106.47L295.92 106.47L295.92 107.76L287.3 107.76L287.3 106.47Z" fill="#263238" fill-opacity="1.000000" fill-rule="evenodd"/>
	<path id="Vector" d="M296.36 108.21L286.85 108.21L286.85 106.02L296.36 106.02L296.36 108.21ZM287.75 107.32L295.46 107.32L295.46 106.92L287.75 106.92L287.75 107.32Z" fill="#263238" fill-opacity="1.000000" fill-rule="nonzero"/>
	<path id="Vector" d="M286.32 129.08C286.32 129.13 286.32 129.17 286.32 129.19C286.08 129.87 285.66 130.46 285.09 130.89C284.52 131.33 283.84 131.59 283.13 131.65C282.74 131.69 282.35 131.64 281.98 131.52C281.61 131.4 281.26 131.21 280.97 130.95C280.44 130.37 280.12 129.62 280.08 128.83C279.93 128.11 279.97 127.35 280.19 126.65C280.42 125.94 280.81 125.3 281.35 124.78C281.72 124.34 283.14 123.19 283.24 122.61L284.04 116.37C284.04 116.37 291.83 114.58 292.5 114.68C292.64 114.7 292.78 114.75 292.89 114.83C293.01 114.91 293.1 115.02 293.17 115.14C293.23 115.27 293.27 115.4 293.27 115.54C293.27 115.68 293.24 115.82 293.18 115.95C293.01 116.46 291.83 116.71 291.57 116.79C291.32 116.87 287.51 117.8 287.51 117.8L286.16 119.41C286.81 119.08 287.49 118.8 288.19 118.56C288.45 118.56 292.66 117.97 293.18 117.89C293.34 117.89 293.49 117.92 293.63 117.99C293.76 118.06 293.88 118.16 293.97 118.29C294.05 118.42 294.1 118.56 294.11 118.72C294.13 118.87 294.1 119.02 294.03 119.16C293.69 119.84 293.44 120 293.18 120C292.92 120 288.71 120.77 288.71 120.77L286.35 122.79C286.35 122.79 289.56 121.78 289.92 121.78C290.28 121.78 293.22 121.69 293.31 122.2C293.38 122.46 293.34 122.73 293.22 122.97C293.09 123.2 292.88 123.38 292.63 123.47C292.04 123.64 289.75 123.98 289.75 123.98L287.2 125.33L289.66 125.33C289.66 125.33 292.04 126.09 292.54 126.22C293.04 126.34 293.43 126.56 292.71 127.32C291.99 128.08 286.76 127.47 286.76 127.47C286.76 127.47 286.41 128.67 286.32 129.08Z" fill="#FFFFFF" fill-opacity="1.000000" fill-rule="nonzero"/>
	<path id="Vector" d="M282.82 132.14C282.01 132.16 281.23 131.87 280.63 131.32C280.01 130.67 279.64 129.82 279.59 128.92C279.43 128.14 279.48 127.32 279.72 126.55C279.96 125.79 280.39 125.09 280.96 124.53C281.08 124.4 281.29 124.19 281.54 123.95C282.01 123.56 282.42 123.11 282.75 122.61L283.59 116.03L283.9 115.96C285.74 115.54 291.81 114.17 292.52 114.26C292.7 114.28 292.88 114.34 293.03 114.44C293.19 114.54 293.32 114.67 293.42 114.82C293.53 115.02 293.6 115.23 293.63 115.46C293.65 115.68 293.62 115.9 293.55 116.12C293.33 116.77 292.33 117.01 291.76 117.2L291.62 117.24C291.38 117.32 288.54 118.02 287.66 118.23C287.8 118.17 287.96 118.13 288.12 118.12C288.42 118.12 292.5 117.54 293.04 117.45C293.28 117.43 293.51 117.47 293.72 117.58C293.93 117.68 294.12 117.83 294.25 118.02C294.38 118.22 294.46 118.44 294.48 118.68C294.5 118.91 294.46 119.14 294.36 119.36C294.09 119.9 293.73 120.45 293.11 120.45C292.88 120.45 290.43 120.9 288.82 121.19L288.17 121.74C288.71 121.57 289.26 121.43 289.81 121.34L289.95 121.34C292.94 121.34 293.52 121.59 293.64 122.14C293.73 122.51 293.68 122.9 293.5 123.23C293.31 123.56 293.01 123.81 292.65 123.93C292.08 124.09 290.2 124.37 289.79 124.43L288.89 124.91L289.71 124.91C290.6 125.21 292.17 125.68 292.52 125.74C292.71 125.74 292.9 125.8 293.05 125.9C293.21 126.01 293.34 126.16 293.42 126.33C293.59 126.8 293.24 127.26 292.97 127.58C292.22 128.42 288.29 128.06 287.02 127.92C287.02 128.07 286.95 128.25 286.91 128.44C286.86 128.63 286.79 129.04 286.75 129.2C286.74 129.25 286.72 129.31 286.7 129.36C286.44 130.12 285.96 130.78 285.32 131.27C284.69 131.76 283.93 132.05 283.13 132.11L282.82 132.14ZM284.4 116.76L283.64 122.72C283.57 123.24 282.98 123.83 282.16 124.6C281.98 124.77 281.81 124.93 281.64 125.11C281.15 125.58 280.78 126.17 280.57 126.82C280.37 127.47 280.34 128.16 280.48 128.83C280.51 129.51 280.79 130.17 281.25 130.67C281.49 130.88 281.78 131.04 282.09 131.14C282.39 131.24 282.72 131.28 283.04 131.24C283.67 131.2 284.27 130.97 284.76 130.58C285.26 130.2 285.64 129.68 285.85 129.08L286.3 129.13L285.86 129.02C285.86 128.87 285.96 128.58 286.01 128.29C286.26 127.11 286.29 126.97 286.71 127.01C289.04 127.28 291.9 127.34 292.28 127.01C292.37 126.91 292.46 126.8 292.52 126.68L292.37 126.68C291.88 126.59 289.94 125.98 289.49 125.79L285.33 125.79L289.58 123.55C290.22 123.46 291.94 123.19 292.41 123.06C292.53 123.01 292.64 122.93 292.71 122.81C292.78 122.7 292.8 122.56 292.78 122.43C291.86 122.23 290.91 122.17 289.97 122.24L289.82 122.24C289.58 122.24 287.89 122.76 286.4 123.23L284.31 123.89L288.44 120.32L288.55 120.32C290.15 120.03 292.87 119.55 293.12 119.55C293.18 119.55 293.34 119.42 293.57 118.95C293.6 118.88 293.62 118.8 293.61 118.73C293.6 118.65 293.57 118.58 293.52 118.52C293.49 118.46 293.44 118.41 293.38 118.38C293.32 118.35 293.26 118.33 293.19 118.32C292.93 118.37 288.46 119 288.12 119C287.97 119 287.04 119.45 286.28 119.8L284.42 120.7L287.2 117.39L287.34 117.39C288.79 117.04 291.18 116.45 291.38 116.38L291.56 116.33C292.5 116.06 292.67 115.88 292.7 115.82C292.74 115.74 292.76 115.65 292.76 115.56C292.76 115.47 292.74 115.38 292.7 115.3C292.67 115.25 292.63 115.21 292.58 115.18C292.53 115.15 292.48 115.14 292.42 115.14C291.99 115.09 287.99 115.9 284.4 116.71L284.4 116.76Z" fill="#263238" fill-opacity="1.000000" fill-rule="nonzero"/>
	<path id="Vector" d="M327.4 125.44L325.72 127.68C325.72 127.68 325.72 141.07 326.25 142.19C326.78 143.3 330.88 146.39 333.09 146.39C335.3 146.39 339.62 141.35 339.83 140.51C340.03 139.67 334.36 123.37 334.46 122.95C334.57 122.53 333.95 122.01 333.2 122.01C332.46 122.01 327.4 125.44 327.4 125.44Z" fill="#397DF6" fill-opacity="1.000000" fill-rule="nonzero"/>
	<path id="Vector" d="M333.11 146.81C330.67 146.81 326.45 143.64 325.86 142.35C325.27 141.05 325.29 129.9 325.29 127.66C325.29 127.56 325.32 127.46 325.38 127.39L327.06 125.18L327.17 125.08C329.1 123.76 332.45 121.51 333.21 121.51C333.5 121.5 333.78 121.56 334.03 121.68C334.29 121.79 334.52 121.96 334.71 122.18C334.79 122.28 334.86 122.4 334.89 122.53C334.93 122.66 334.94 122.79 334.93 122.93C335.02 123.42 335.98 126.36 336.92 129.22C339.75 137.84 340.41 140.06 340.28 140.56C340 141.66 335.54 146.81 333.11 146.81ZM326.19 127.81C326.19 134.19 326.36 141.28 326.67 141.98C327.15 143.03 331.14 145.92 333.11 145.92C335.07 145.92 339.18 141.2 339.42 140.37C339.42 139.73 337.41 133.59 336.07 129.52C334.04 123.33 333.98 123.06 334.05 122.82C333.95 122.69 333.83 122.59 333.68 122.52C333.53 122.45 333.37 122.42 333.21 122.43C331.3 123.39 329.46 124.51 327.73 125.77L326.19 127.81Z" fill="#263238" fill-opacity="1.000000" fill-rule="nonzero"/>
	<path id="Vector" d="M333.24 117.47L333.51 123.13C333.51 123.13 333.2 125.44 331.72 126.39C330.66 126.99 329.46 127.31 328.24 127.34L327.3 125.44L325.83 123.97L333.24 117.47Z" fill="#FFFFFF" fill-opacity="1.000000" fill-rule="nonzero"/>
	<path id="Vector" d="M328.24 127.78L327.98 127.78L326.93 125.71L325.14 123.93L333.61 116.5L333.92 123.09C333.92 123.27 333.55 125.69 331.93 126.75C330.81 127.39 329.54 127.75 328.24 127.78ZM326.46 124L327.67 125.25L328.49 126.88C329.54 126.82 330.55 126.52 331.45 125.99C332.74 125.17 333.04 123.07 333.04 123.04L332.81 118.39L326.46 124Z" fill="#263238" fill-opacity="1.000000" fill-rule="nonzero"/>
	<path id="Vector" d="M334.95 109.78L324.28 107.56L317.6 125.35L326.63 126.98L334.95 109.78Z" fill="#263238" fill-opacity="1.000000" fill-rule="nonzero"/>
	<path id="Vector" d="M326.85 127.48L317.02 125.69L324.01 107.06L335.64 109.48L326.85 127.48ZM318.21 125.01L326.37 126.49L334.3 110.11L324.57 108.05L318.21 125.01Z" fill="#263238" fill-opacity="1.000000" fill-rule="nonzero"/>
	<path id="Vector" d="M333.48 114.3C333.48 114.3 326.33 114.62 326.25 115.19C326.17 115.76 326.41 116.46 326.65 116.54C326.89 116.62 333.24 117.49 333.24 117.49C333.24 117.49 335.03 117.09 334.9 115.66C334.91 115.48 334.87 115.29 334.8 115.12C334.73 114.95 334.63 114.8 334.49 114.67C334.36 114.54 334.2 114.44 334.03 114.38C333.85 114.31 333.67 114.28 333.48 114.3Z" fill="#FFFFFF" fill-opacity="1.000000" fill-rule="nonzero"/>
	<path id="Vector" d="M333.26 117.93L333.18 117.93C330.79 117.61 326.75 117.04 326.51 116.96C325.95 116.78 325.72 115.75 325.81 115.13C325.87 114.74 325.95 114.23 333.45 113.88C333.94 113.86 334.41 114.01 334.78 114.32C334.96 114.49 335.1 114.7 335.2 114.93C335.3 115.15 335.35 115.4 335.35 115.64C335.33 116.2 335.12 116.73 334.75 117.14C334.39 117.56 333.89 117.83 333.34 117.92L333.26 117.93ZM326.85 116.08C327.39 116.18 330.94 116.68 333.21 116.97C333.5 116.89 334.51 116.53 334.46 115.63C334.47 115.5 334.44 115.38 334.39 115.27C334.34 115.15 334.27 115.05 334.18 114.97C334.09 114.88 333.98 114.82 333.86 114.78C333.75 114.74 333.62 114.72 333.5 114.73L333.5 114.29L333.5 114.73C331.22 114.78 328.94 115.01 326.69 115.4C326.69 115.64 326.74 115.87 326.85 116.08Z" fill="#263238" fill-opacity="1.000000" fill-rule="nonzero"/>
	<path id="Vector" d="M329.43 117.07C329.43 117.07 323.17 116.36 322.84 116.76C322.51 117.16 322.21 117.71 323.16 118.11C325.51 118.89 327.89 119.55 330.31 120.09C330.74 120.06 331.17 119.94 331.55 119.74C331.94 119.53 332.27 119.25 332.53 118.9C332.65 118.71 332.73 118.5 332.76 118.28C332.78 118.06 332.76 117.84 332.7 117.63L329.43 117.07Z" fill="#FFFFFF" fill-opacity="1.000000" fill-rule="nonzero"/>
	<path id="Vector" d="M330.3 120.54C327.83 120.01 325.38 119.34 322.99 118.53C322.78 118.46 322.59 118.35 322.43 118.19C322.28 118.03 322.16 117.84 322.09 117.63C322.06 117.42 322.08 117.2 322.15 116.99C322.22 116.79 322.33 116.6 322.49 116.45C322.65 116.24 322.95 115.86 329.47 116.6L332.95 117.2L333.04 117.39C333.15 117.66 333.19 117.96 333.16 118.25C333.14 118.53 333.04 118.81 332.89 119.06C332.6 119.49 332.21 119.84 331.77 120.1C331.32 120.35 330.82 120.51 330.3 120.54ZM323.15 117.13C322.98 117.36 322.99 117.44 322.99 117.46C322.99 117.47 323.09 117.59 323.34 117.71C324.35 118.12 329.85 119.62 330.33 119.65C330.67 119.62 331.01 119.52 331.32 119.36C331.62 119.2 331.9 118.98 332.11 118.71C332.23 118.5 332.29 118.26 332.3 118.03L329.36 117.53C327.3 117.23 325.21 117.1 323.13 117.12L323.15 117.13Z" fill="#263238" fill-opacity="1.000000" fill-rule="nonzero"/>
	<path id="Vector" d="M326.18 119.13C326.18 119.13 321.41 118.19 321.17 118.66C320.93 119.13 320.86 119.93 321.33 120.25C321.81 120.57 328.16 122.3 328.56 122.46C328.95 122.62 329.91 122.15 330.22 121.52C330.41 121.06 330.44 120.56 330.3 120.09L326.18 119.13Z" fill="#FFFFFF" fill-opacity="1.000000" fill-rule="nonzero"/>
	<path id="Vector" d="M328.74 122.94C328.62 122.94 328.5 122.92 328.39 122.88C328.27 122.83 327.38 122.57 326.5 122.32C324.66 121.87 322.85 121.3 321.08 120.61C320.79 120.35 320.59 119.99 320.54 119.6C320.48 119.2 320.56 118.8 320.77 118.46C320.92 118.17 321.16 117.68 326.26 118.7L330.64 119.71L330.71 119.95C330.89 120.54 330.85 121.18 330.6 121.74C330.41 122.08 330.14 122.36 329.82 122.57C329.49 122.78 329.12 122.91 328.74 122.94ZM321.49 118.98C321.36 119.31 321.35 119.75 321.54 119.87C321.89 120.07 325.03 120.98 326.71 121.46C327.94 121.82 328.5 121.99 328.69 122.05C328.88 122.04 329.06 121.99 329.23 121.9C329.4 121.81 329.54 121.68 329.66 121.53C329.77 121.38 329.85 121.2 329.89 121.02C329.93 120.83 329.93 120.64 329.89 120.45L326.04 119.56C324.55 119.22 323.02 119.02 321.49 118.98Z" fill="#263238" fill-opacity="1.000000" fill-rule="nonzero"/>
	<path id="Vector" d="M326.33 121.91C326.33 121.91 322.75 121.2 322.6 121.6C322.45 122 322.36 122.86 323.08 123.1C323.79 123.33 327.92 125 328.64 124.52C329.35 124.05 329.11 122.78 329.11 122.78L326.33 121.91Z" fill="#FFFFFF" fill-opacity="1.000000" fill-rule="nonzero"/>
	<path id="Vector" d="M328.22 125.05C326.59 124.83 324.99 124.39 323.49 123.72L322.93 123.52C322.77 123.47 322.62 123.39 322.49 123.27C322.37 123.16 322.26 123.02 322.19 122.86C322 122.4 322 121.89 322.19 121.43C322.31 121.11 322.49 120.69 326.42 121.47L326.47 121.47L329.5 122.43L329.5 122.69C329.5 122.85 329.77 124.27 328.84 124.89C328.65 125 328.44 125.05 328.22 125.05ZM322.97 121.92C322.92 122.1 322.92 122.3 322.97 122.48C322.99 122.53 323.02 122.57 323.06 122.6C323.1 122.64 323.14 122.66 323.19 122.68L323.77 122.88C327.11 124.11 328.12 124.25 328.38 124.15C328.64 124.05 328.69 123.46 328.67 123.12L326.22 122.33C325.15 122.1 324.06 121.96 322.97 121.92Z" fill="#263238" fill-opacity="1.000000" fill-rule="nonzero"/>
	<path id="Vector" d="M347.66 17.61L380.08 17.61C381.54 17.61 382.93 18.19 383.96 19.22C384.99 20.25 385.57 21.64 385.57 23.09L385.57 45.03C385.57 46.48 384.99 47.88 383.96 48.9C382.93 49.93 381.54 50.51 380.08 50.51L361.04 50.51L352.33 62.75L352.33 50.51L347.66 50.51C346.94 50.51 346.22 50.37 345.56 50.1C344.89 49.82 344.28 49.42 343.77 48.91C343.26 48.4 342.86 47.79 342.58 47.13C342.3 46.46 342.16 45.75 342.16 45.03L342.16 23.09C342.16 22.37 342.3 21.66 342.58 20.99C342.86 20.33 343.26 19.72 343.77 19.21C344.28 18.71 344.89 18.3 345.56 18.03C346.22 17.75 346.94 17.61 347.66 17.61Z" fill="#263238" fill-opacity="1.000000" fill-rule="nonzero"/>
	<path id="Vector" d="M352.33 63.2C352.29 63.21 352.24 63.21 352.2 63.2C352.11 63.17 352.03 63.12 351.97 63.04C351.92 62.97 351.89 62.88 351.89 62.78L351.89 50.93L347.66 50.93C346.08 50.93 344.57 50.31 343.46 49.19C342.34 48.08 341.72 46.58 341.71 45L341.71 23.09C341.72 21.52 342.34 20.01 343.46 18.9C344.57 17.79 346.08 17.17 347.66 17.17L380.08 17.17C381.65 17.17 383.16 17.79 384.28 18.9C385.39 20.02 386.01 21.52 386.02 23.09L386.02 45.03C386.01 46.6 385.39 48.11 384.28 49.22C383.16 50.33 381.65 50.95 380.08 50.96L361.31 50.96L352.74 63.01C352.69 63.08 352.63 63.13 352.56 63.16C352.49 63.19 352.41 63.21 352.33 63.2ZM347.66 18.06C346.32 18.06 345.04 18.59 344.09 19.53C343.14 20.48 342.61 21.76 342.61 23.09L342.61 45.03C342.61 46.37 343.14 47.65 344.09 48.59C345.04 49.53 346.32 50.06 347.66 50.06L352.33 50.06C352.45 50.06 352.57 50.11 352.65 50.19C352.73 50.28 352.78 50.39 352.78 50.51L352.78 61.35L360.68 50.25C360.72 50.19 360.78 50.15 360.84 50.11C360.9 50.08 360.97 50.06 361.04 50.06L380.08 50.06C381.42 50.06 382.7 49.53 383.64 48.59C384.59 47.64 385.12 46.36 385.12 45.03L385.12 23.09C385.12 21.76 384.59 20.48 383.64 19.54C382.7 18.59 381.42 18.06 380.08 18.06L347.66 18.06Z" fill="#263238" fill-opacity="1.000000" fill-rule="nonzero"/>
	<path id="Vector" d="M361.82 45.07L361.71 45.07C361.23 45.05 360.76 44.91 360.33 44.68C359.91 44.45 359.55 44.12 359.27 43.73L353.38 35.29C353.13 34.96 352.95 34.57 352.85 34.17C352.75 33.76 352.73 33.34 352.8 32.93C352.87 32.51 353.02 32.12 353.24 31.76C353.46 31.41 353.75 31.1 354.1 30.86C354.44 30.62 354.83 30.45 355.24 30.37C355.65 30.28 356.08 30.28 356.49 30.36C356.9 30.44 357.29 30.6 357.64 30.84C357.99 31.07 358.28 31.37 358.51 31.72L362.09 36.78L374.48 21.75C375.01 21.12 375.76 20.73 376.58 20.66C377.4 20.59 378.21 20.84 378.84 21.36C379.47 21.88 379.88 22.62 379.97 23.44C380.06 24.25 379.82 25.07 379.31 25.71L364.3 43.93C364 44.3 363.62 44.59 363.19 44.78C362.76 44.98 362.29 45.08 361.82 45.07Z" fill="#14CC70" fill-opacity="1.000000" fill-rule="nonzero"/>
	<path id="Vector" d="M376.83 20.58C377.55 20.58 378.26 20.83 378.81 21.3C379.13 21.56 379.39 21.88 379.59 22.24C379.78 22.6 379.9 23 379.94 23.4C379.98 23.81 379.94 24.22 379.83 24.62C379.71 25.01 379.51 25.37 379.25 25.69L364.24 43.91C363.95 44.27 363.58 44.56 363.16 44.76C362.74 44.95 362.28 45.06 361.82 45.06L361.71 45.06C361.23 45.04 360.76 44.91 360.33 44.67C359.91 44.44 359.55 44.11 359.27 43.72L353.38 35.28C353.13 34.95 352.95 34.57 352.85 34.16C352.75 33.75 352.73 33.33 352.8 32.92C352.87 32.5 353.02 32.11 353.24 31.75C353.46 31.4 353.75 31.09 354.1 30.85C354.44 30.61 354.83 30.45 355.24 30.36C355.65 30.27 356.08 30.27 356.49 30.35C356.9 30.43 357.29 30.59 357.64 30.83C357.99 31.06 358.28 31.36 358.51 31.71L362.09 36.77L374.48 21.74C374.77 21.38 375.14 21.09 375.55 20.89C375.97 20.69 376.43 20.59 376.89 20.59L376.83 20.58ZM376.89 18.81C376.16 18.81 375.45 18.97 374.79 19.27C374.13 19.58 373.55 20.03 373.09 20.59L362.2 33.81L360.02 30.69C359.24 29.71 358.12 29.06 356.88 28.88C355.64 28.7 354.38 29 353.35 29.71C352.33 30.43 351.61 31.51 351.36 32.73C351.1 33.96 351.32 35.23 351.98 36.3L357.87 44.74C358.3 45.36 358.88 45.87 359.54 46.24C360.21 46.6 360.95 46.81 361.7 46.84L361.9 46.84C362.63 46.84 363.34 46.68 364 46.37C364.66 46.07 365.24 45.62 365.7 45.06L380.63 26.83C381.22 26.11 381.6 25.24 381.71 24.32C381.83 23.39 381.68 22.45 381.28 21.61C380.88 20.77 380.25 20.06 379.46 19.56C378.67 19.06 377.76 18.8 376.83 18.8L376.89 18.81Z" fill="#263238" fill-opacity="1.000000" fill-rule="nonzero"/>
</svg>
