<svg width="473.000000" height="352.441772" viewBox="0 0 473 352.442" fill="none" xmlns="http://www.w3.org/2000/svg" xmlns:xlink="http://www.w3.org/1999/xlink">
	<desc>
			Created with Pixso.
	</desc>
	<defs/>
	<path id="Vector" d="M0 309.72L473 309.72L473 309.95L0 309.95L0 309.72Z" fill="#4C4C4C" fill-opacity="1.000000" fill-rule="evenodd"/>
	<path id="Vector" d="M394.27 324.94L425.6 324.94L425.6 325.17L394.27 325.17L394.27 324.94Z" fill="#4C4C4C" fill-opacity="1.000000" fill-rule="evenodd"/>
	<path id="Vector" d="M305.11 327.51L313.33 327.51L313.33 327.75L305.11 327.75L305.11 327.51Z" fill="#EBEBEB" fill-opacity="1.000000" fill-rule="evenodd"/>
	<path id="Vector" d="M375.17 316.16L393.32 316.16L393.32 316.39L375.17 316.39L375.17 316.16Z" fill="#4C4C4C" fill-opacity="1.000000" fill-rule="evenodd"/>
	<path id="Vector" d="M49.62 317.75L90.48 317.75L90.48 317.98L49.62 317.98L49.62 317.75Z" fill="#4C4C4C" fill-opacity="1.000000" fill-rule="evenodd"/>
	<path id="Vector" d="M98.91 317.75L104.9 317.75L104.9 317.98L98.91 317.98L98.91 317.75Z" fill="#4C4C4C" fill-opacity="1.000000" fill-rule="evenodd"/>
	<path id="Vector" d="M124.37 321.74L212.99 321.74L212.99 321.98L124.37 321.98L124.37 321.74Z" fill="#4C4C4C" fill-opacity="1.000000" fill-rule="evenodd"/>
	<path id="Vector" d="M224.2 267.52L41.53 267.52C40.1 267.52 38.73 266.95 37.72 265.94C36.71 264.93 36.14 263.55 36.14 262.12L36.14 5.35C36.15 3.93 36.73 2.57 37.74 1.56C38.75 0.56 40.11 0 41.53 0L224.2 0C225.63 0 227 0.56 228.02 1.58C229.03 2.59 229.6 3.96 229.6 5.4L229.6 262.12C229.6 263.56 229.03 264.93 228.02 265.94C227 266.96 225.63 267.52 224.2 267.52ZM41.53 0.18C40.17 0.19 38.85 0.73 37.89 1.7C36.92 2.67 36.38 3.98 36.38 5.35L36.38 262.12C36.38 263.49 36.92 264.8 37.89 265.77C38.85 266.74 40.17 267.29 41.53 267.29L224.2 267.29C225.57 267.29 226.88 266.74 227.85 265.77C228.82 264.8 229.36 263.49 229.36 262.12L229.36 5.35C229.36 3.98 228.82 2.67 227.85 1.7C226.88 0.73 225.57 0.19 224.2 0.18L41.53 0.18Z" fill="#4C4C4C" fill-opacity="1.000000" fill-rule="nonzero"/>
	<path id="Vector" d="M428.83 267.52L246.15 267.52C244.72 267.52 243.35 266.95 242.34 265.94C241.33 264.93 240.76 263.55 240.75 262.12L240.75 5.35C240.77 3.93 241.34 2.57 242.35 1.56C243.37 0.56 244.73 0 246.15 0L428.83 0C430.25 0 431.61 0.56 432.62 1.57C433.63 2.57 434.2 3.93 434.21 5.35L434.21 262.12C434.21 263.55 433.64 264.92 432.63 265.94C431.63 266.95 430.26 267.52 428.83 267.52ZM246.15 0.18C244.79 0.19 243.47 0.73 242.5 1.7C241.54 2.67 240.99 3.98 240.99 5.35L240.99 262.12C240.99 263.49 241.54 264.8 242.5 265.77C243.47 266.74 244.79 267.29 246.15 267.29L428.83 267.29C430.2 267.29 431.51 266.74 432.48 265.77C433.44 264.8 433.99 263.49 433.99 262.12L433.99 5.35C433.99 3.98 433.44 2.67 432.48 1.7C431.51 0.73 430.2 0.19 428.83 0.18L246.15 0.18Z" fill="#4C4C4C" fill-opacity="1.000000" fill-rule="nonzero"/>
	<path id="Vector" d="M191.55 309.72L63.18 309.72L63.18 38.41L191.55 38.41L191.55 309.72Z" fill="#4C4C4C" fill-opacity="1.000000" fill-rule="evenodd"/>
	<path id="Vector" d="M188.7 309.72L60.33 309.72L60.33 38.41L188.7 38.41L188.7 309.72Z" fill="#4C4C4C" fill-opacity="1.000000" fill-rule="evenodd"/>
	<path id="Vector" d="M183.59 44.16L183.59 303.96L65.46 303.96L65.46 44.16L183.59 44.16Z" fill="#333333" fill-opacity="1.000000" fill-rule="evenodd"/>
	<path id="Vector" d="M156.38 303.96L126.45 44.16L92.66 44.16L122.59 303.96L156.38 303.96Z" fill="#4C4C4C" fill-opacity="1.000000" fill-rule="nonzero"/>
	<path id="Vector" d="M67.62 44.16L67.62 303.96L65.46 303.96L65.46 44.16L67.62 44.16Z" fill="#4C4C4C" fill-opacity="1.000000" fill-rule="evenodd"/>
	<path id="Vector" d="M186.58 74.39L62.45 74.39L62.45 66.67L186.58 66.67L186.58 74.39Z" fill="#4C4C4C" fill-opacity="1.000000" fill-rule="evenodd"/>
	<path id="Vector" d="M259.42 152.3L259.42 309.72L207.59 309.72L207.59 152.3L259.42 152.3Z" fill="#333333" fill-opacity="1.000000" fill-rule="evenodd"/>
	<path id="Vector" d="M256.57 156.9L256.57 203.04L210.43 203.04L210.43 156.9L256.57 156.9Z" fill="#4C4C4C" fill-opacity="1.000000" fill-rule="evenodd"/>
	<path id="Vector" d="M256.57 207.18L256.57 253.32L210.43 253.32L210.43 207.18L256.57 207.18Z" fill="#4C4C4C" fill-opacity="1.000000" fill-rule="evenodd"/>
	<path id="Vector" d="M256.57 257.46L256.57 303.6L210.43 303.6L210.43 257.46L256.57 257.46Z" fill="#4C4C4C" fill-opacity="1.000000" fill-rule="evenodd"/>
	<path id="Vector" d="M243.71 156.29L223.25 156.29C223.25 156.92 223.36 157.55 223.6 158.13C223.84 158.71 224.19 159.24 224.64 159.69C225.08 160.13 225.61 160.48 226.19 160.72C226.78 160.96 227.4 161.08 228.03 161.07L238.89 161.07C239.52 161.08 240.15 160.96 240.73 160.72C241.31 160.48 241.85 160.13 242.29 159.69C242.74 159.24 243.1 158.71 243.34 158.13C243.59 157.55 243.71 156.92 243.71 156.29Z" fill="#E6E6E6" fill-opacity="1.000000" fill-rule="nonzero"/>
	<path id="Vector" d="M243.71 206.57L223.25 206.57C223.25 207.84 223.75 209.06 224.65 209.95C225.55 210.85 226.76 211.36 228.03 211.36L238.89 211.36C239.52 211.36 240.15 211.24 240.73 211C241.32 210.77 241.85 210.41 242.3 209.97C242.74 209.52 243.1 209 243.34 208.41C243.59 207.83 243.71 207.2 243.71 206.57Z" fill="#333333" fill-opacity="1.000000" fill-rule="nonzero"/>
	<path id="Vector" d="M243.71 256.85L223.25 256.85C223.25 258.12 223.75 259.34 224.65 260.23C225.55 261.13 226.76 261.64 228.03 261.64L238.89 261.64C239.52 261.64 240.15 261.52 240.73 261.28C241.32 261.04 241.85 260.69 242.3 260.25C242.74 259.8 243.1 259.28 243.34 258.69C243.59 258.11 243.71 257.48 243.71 256.85Z" fill="#333333" fill-opacity="1.000000" fill-rule="nonzero"/>
	<path id="Vector" d="M285.3 152.3L285.3 309.72L259.41 309.72L259.41 152.3L285.3 152.3Z" fill="#4C4C4C" fill-opacity="1.000000" fill-rule="evenodd"/>
	<path id="Vector" d="M412.15 305.85L397.78 305.85L397.78 187.33L412.15 187.33L412.15 305.85Z" fill="#4C4C4C" fill-opacity="1.000000" fill-rule="evenodd"/>
	<path id="Vector" d="M410.16 309.72L272.18 309.72L272.18 305.85L410.16 305.85L410.16 309.72Z" fill="#333333" fill-opacity="1.000000" fill-rule="evenodd"/>
	<path id="Vector" d="M270.18 187.33L397.78 187.33L397.78 305.85L270.18 305.85L270.18 187.33Z" fill="#4C4C4C" fill-opacity="1.000000" fill-rule="evenodd"/>
	<path id="Vector" d="M295.15 256.59L372.78 256.59C376.44 256.59 379.96 255.13 382.55 252.54C385.14 249.95 386.6 246.43 386.6 242.77C386.6 239.1 385.14 235.59 382.55 232.99C379.96 230.4 376.44 228.95 372.78 228.95L295.15 228.95C291.48 228.95 287.97 230.4 285.37 232.99C282.78 235.59 281.33 239.1 281.33 242.77C281.33 246.43 282.78 249.95 285.37 252.54C287.97 255.13 291.48 256.59 295.15 256.59ZM372.8 229.87C374.49 229.87 376.17 230.21 377.73 230.85C379.29 231.5 380.72 232.45 381.91 233.65C383.11 234.85 384.06 236.27 384.71 237.83C385.36 239.4 385.69 241.07 385.69 242.77C385.69 244.46 385.36 246.14 384.71 247.7C384.06 249.27 383.11 250.69 381.91 251.88C380.72 253.08 379.29 254.03 377.73 254.68C376.17 255.33 374.49 255.66 372.8 255.66L295.15 255.66C291.73 255.66 288.45 254.3 286.03 251.88C283.61 249.47 282.25 246.19 282.25 242.77C282.25 239.35 283.61 236.07 286.03 233.65C288.45 231.23 291.73 229.87 295.15 229.87L372.8 229.87Z" fill="#333333" fill-opacity="1.000000" fill-rule="nonzero"/>
	<path id="Vector" d="M295.15 290.98L372.78 290.98C376.44 290.98 379.96 289.52 382.55 286.93C385.14 284.34 386.6 280.82 386.6 277.15C386.6 273.49 385.14 269.97 382.55 267.38C379.96 264.79 376.44 263.33 372.78 263.33L295.15 263.33C291.48 263.33 287.97 264.79 285.37 267.38C282.78 269.97 281.33 273.49 281.33 277.15C281.33 280.82 282.78 284.34 285.37 286.93C287.97 289.52 291.48 290.98 295.15 290.98ZM372.78 264.26C374.5 264.21 376.21 264.51 377.82 265.14C379.42 265.77 380.88 266.71 382.12 267.91C383.35 269.11 384.33 270.55 385 272.13C385.67 273.72 386.02 275.43 386.02 277.15C386.02 278.87 385.67 280.58 385 282.16C384.33 283.75 383.35 285.19 382.12 286.39C380.88 287.59 379.42 288.53 377.82 289.16C376.21 289.79 374.5 290.09 372.78 290.04L295.15 290.04C293.43 290.09 291.71 289.79 290.11 289.16C288.5 288.53 287.04 287.59 285.81 286.39C284.57 285.19 283.59 283.75 282.92 282.16C282.25 280.58 281.9 278.87 281.9 277.15C281.9 275.43 282.25 273.72 282.92 272.13C283.59 270.55 284.57 269.11 285.81 267.91C287.04 266.71 288.5 265.77 290.11 265.14C291.71 264.51 293.43 264.21 295.15 264.26L372.78 264.26Z" fill="#333333" fill-opacity="1.000000" fill-rule="nonzero"/>
	<path id="Vector" d="M322.27 239.79L345.69 239.79C346.46 239.78 347.19 239.48 347.73 238.94C348.27 238.4 348.58 237.67 348.58 236.9C348.58 236.14 348.27 235.41 347.73 234.86C347.19 234.32 346.46 234.02 345.69 234.02L322.27 234.02C321.51 234.02 320.77 234.32 320.23 234.86C319.69 235.41 319.39 236.14 319.38 236.9C319.39 237.67 319.69 238.4 320.23 238.94C320.77 239.48 321.51 239.78 322.27 239.79Z" fill="#333333" fill-opacity="1.000000" fill-rule="nonzero"/>
	<path id="Vector" d="M295.15 222.2L372.78 222.2C376.44 222.2 379.96 220.75 382.55 218.15C385.14 215.56 386.6 212.05 386.6 208.38C386.6 204.71 385.14 201.2 382.55 198.61C379.96 196.02 376.44 194.56 372.78 194.56L295.15 194.56C291.48 194.56 287.97 196.02 285.37 198.61C282.78 201.2 281.33 204.71 281.33 208.38C281.33 212.05 282.78 215.56 285.37 218.15C287.97 220.75 291.48 222.2 295.15 222.2ZM372.78 195.49C376.2 195.49 379.48 196.84 381.89 199.26C384.31 201.68 385.67 204.96 385.67 208.38C385.67 211.8 384.31 215.08 381.89 217.5C379.48 219.92 376.2 221.27 372.78 221.27L295.15 221.27C291.73 221.27 288.45 219.92 286.03 217.5C283.61 215.08 282.25 211.8 282.25 208.38C282.25 204.96 283.61 201.68 286.03 199.26C288.45 196.84 291.73 195.49 295.15 195.49L372.78 195.49Z" fill="#333333" fill-opacity="1.000000" fill-rule="nonzero"/>
	<path id="Vector" d="M322.27 205.4L345.69 205.4C346.46 205.4 347.19 205.09 347.73 204.55C348.27 204.01 348.58 203.28 348.58 202.52C348.57 201.76 348.26 201.04 347.72 200.51C347.18 199.97 346.45 199.68 345.69 199.68L322.27 199.68C321.51 199.68 320.79 199.97 320.25 200.51C319.71 201.04 319.4 201.76 319.38 202.52C319.39 203.28 319.69 204.01 320.23 204.55C320.77 205.09 321.51 205.4 322.27 205.4Z" fill="#333333" fill-opacity="1.000000" fill-rule="nonzero"/>
	<path id="Vector" d="M322.27 274.17L345.69 274.17C346.45 274.17 347.18 273.87 347.72 273.34C348.26 272.81 348.57 272.08 348.58 271.33C348.56 270.57 348.25 269.85 347.71 269.32C347.17 268.79 346.45 268.49 345.69 268.49L322.27 268.49C321.51 268.49 320.79 268.79 320.25 269.32C319.71 269.85 319.4 270.57 319.38 271.33C319.4 272.08 319.71 272.81 320.25 273.34C320.79 273.87 321.51 274.17 322.27 274.17Z" fill="#333333" fill-opacity="1.000000" fill-rule="nonzero"/>
	<path id="Vector" d="M397.77 187.33L267.55 187.33L267.55 181.31L397.77 181.31L397.77 187.33Z" fill="#4C4C4C" fill-opacity="1.000000" fill-rule="evenodd"/>
	<path id="Vector" d="M397.78 181.32L414.97 181.32L414.97 187.34L397.78 187.34L397.78 181.32Z" fill="#333333" fill-opacity="1.000000" fill-rule="evenodd"/>
	<path id="Vector" d="M304.61 86.45C307.51 87.91 315.38 86.34 312.76 91.66C311.25 94.45 309.45 97.07 307.38 99.48C304.45 103.1 305 107.04 308.47 108.45C309.21 108.7 309.87 109.16 310.36 109.77C311.96 112.06 308.19 115.12 306.34 117.41C304.48 119.7 303.75 121.95 305.11 123.66C306.62 125.55 309.76 124.84 312.26 125.41C318.26 126.78 312.09 135.06 312.72 139.3C313.16 142.22 315.56 143.03 318.73 143.44C321.35 143.78 324.84 144.01 324.98 146.69C325.12 149.02 322.09 151.65 321.29 154.09C320.92 155.14 320.78 156.26 320.88 157.37C320.98 158.48 321.32 159.56 321.88 160.52C322.41 161.34 323.11 162.03 323.92 162.56C324.74 163.09 325.65 163.45 326.61 163.61C329.58 164.23 334.08 163.61 334.29 166.94C334.39 168.43 333.35 169.77 334.07 171.14C334.46 171.71 334.98 172.19 335.59 172.55C336.19 172.9 336.86 173.12 337.56 173.19C340.4 173.62 343.3 173.57 346.13 173.04C349.62 172.39 354.77 169.32 352.88 166.36C352.56 165.93 352.15 165.58 351.68 165.31C351.22 165.05 350.71 164.87 350.18 164.81C349.34 164.64 346.9 164.9 346.59 164.33C346.28 163.77 347.12 161.58 347.15 160.8C347.24 158.62 346.89 156.44 346.14 154.39C345.17 151.72 343.64 149.28 341.63 147.26C340.8 146.42 339.49 145.8 339.32 144.58C339.15 143.36 339.91 142.02 340.76 140.8C342.1 138.91 344.17 137.13 344.92 135.12C346.09 131.96 343.24 130.96 340.6 130.24C338.22 129.59 335.08 128.75 335.87 125.86C336.46 123.77 339.1 122.08 339.88 120.01C340.95 117.28 338.36 117.18 336.52 116.23C334.1 114.96 333.5 112.69 334.37 109.83C335.82 105.1 344.49 98.41 340.04 95.33C338.92 94.55 337.87 94.29 337.21 93.11C336.54 91.93 336.37 90.27 335.43 89.16C333.93 87.35 330.84 87.05 329.23 85.37C325.91 81.93 333.07 75.83 326.54 74.37C325.16 74.19 323.85 73.65 322.75 72.79C322.16 72.23 321.66 69.54 320.99 69.35C317.99 68.51 312.59 74.33 310.89 76.12C308.82 78.28 301.16 84.71 304.61 86.45Z" fill="#333333" fill-opacity="1.000000" fill-rule="nonzero"/>
	<path id="Vector" d="M356.06 166.69C354.28 163.39 346.5 160.07 351.66 156.28C354.45 154.39 357.44 152.82 360.59 151.62C365.11 149.73 366.72 145.38 364.43 141.77C363.91 141.01 363.58 140.14 363.49 139.22C363.3 135.89 368.26 135.09 371.12 133.89C373.98 132.69 375.85 130.86 375.54 128.26C375.22 125.43 372.08 124.16 370.17 122.03C365.62 116.9 375.49 112.26 377.2 107.51C378.38 104.25 376.73 101.96 374.12 99.54C371.99 97.57 369.03 95.16 370.34 92.32C371.47 89.87 375.55 89.05 377.55 87.05C378.48 86.14 379.21 85.06 379.72 83.86C380.22 82.67 380.48 81.39 380.49 80.09C380.44 77.82 379.55 75.65 377.98 74.01C375.69 71.52 371.36 69.39 372.97 65.83C373.69 64.24 375.33 63.53 375.43 61.66C375.4 60.86 375.21 60.06 374.87 59.33C374.53 58.6 374.05 57.94 373.45 57.4C371.23 55.23 368.64 53.47 365.8 52.22C362.38 50.71 356.18 50.66 356.27 54.87C356.38 56.11 356.93 57.27 357.82 58.14C358.47 58.84 360.76 60.08 360.73 60.85C360.71 61.63 358.84 63.34 358.34 64.12C357.09 66.36 356.23 68.79 355.81 71.31C355.23 74.66 355.28 78.09 355.98 81.42C356.25 82.79 357.09 84.26 356.58 85.6C356.07 86.94 354.69 87.85 353.3 88.54C351.11 89.64 348.32 90.2 346.59 91.79C343.86 94.29 345.83 97.09 347.78 99.47C349.54 101.61 351.86 104.41 349.6 106.88C347.96 108.66 344.72 108.78 342.98 110.37C340.57 112.52 342.8 114.23 343.92 116.39C345.36 119.23 344.69 121.88 342.38 124.27C338.6 128.23 327.34 129.68 329.62 135.62C330.2 137.13 330.97 138.05 330.94 139.67C330.92 141.3 330.17 143.08 330.4 144.83C330.75 147.61 333.31 149.84 333.84 152.56C334.92 158.15 325.32 159.95 330.32 165.5C331.49 166.59 332.35 167.97 332.84 169.49C333.07 170.44 332.05 173.49 332.54 174.11C334.75 176.82 342.63 174.23 345.09 173.44C347.99 172.45 358.19 170.62 356.06 166.69Z" fill="#4C4C4C" fill-opacity="1.000000" fill-rule="nonzero"/>
	<path id="Vector" d="M376 159.25C376 159.25 375.06 181.32 338.94 181.32C302.82 181.32 301.87 159.25 301.87 159.25L376 159.25Z" fill="#333333" fill-opacity="1.000000" fill-rule="nonzero"/>
	<path id="path" d="M419.92 341.73C419.92 347.64 337.8 352.44 236.5 352.44C135.2 352.44 53.08 347.64 53.08 341.73C53.08 335.81 135.2 331.02 236.5 331.02C337.8 331.02 419.92 335.81 419.92 341.73Z" fill="#171717" fill-opacity="1.000000" fill-rule="evenodd"/>
	<g opacity="0.200000">
		<path id="Vector" d="M341.25 333.81L281 222.45L220.74 333.81L341.25 333.81Z" fill="#397DF6" fill-opacity="1.000000" fill-rule="nonzero"/>
		<path id="Vector" d="M341.25 145.41L281 256.77L220.74 145.41L341.25 145.41Z" fill="#397DF6" fill-opacity="1.000000" fill-rule="nonzero"/>
	</g>
	<path id="Vector" d="M292.04 211.16L283.22 227.45C283 227.85 282.68 228.19 282.29 228.42C281.9 228.66 281.45 228.78 281 228.78C280.54 228.78 280.09 228.66 279.7 228.42C279.31 228.19 278.99 227.85 278.77 227.45L269.96 211.16C269.16 209.69 268.76 208.04 268.8 206.36C268.84 204.69 269.31 203.06 270.16 201.62C271.02 200.18 272.24 198.99 273.7 198.17C275.15 197.34 276.8 196.91 278.47 196.91L283.57 196.91C285.24 196.92 286.88 197.36 288.33 198.19C289.78 199.01 290.99 200.2 291.84 201.64C292.69 203.07 293.16 204.71 293.19 206.37C293.23 208.04 292.83 209.69 292.04 211.16Z" fill="#397DF6" fill-opacity="1.000000" fill-rule="nonzero"/>
	<path id="Vector" d="M281.95 305.7L309.34 316.95C309.87 317.18 310.31 317.58 310.59 318.09C310.86 318.6 310.95 319.19 310.84 319.76C310.72 320.33 310.42 320.85 309.98 321.22C309.53 321.59 308.97 321.8 308.39 321.81L253.65 321.81C253.07 321.8 252.51 321.59 252.06 321.22C251.62 320.85 251.31 320.33 251.2 319.76C251.09 319.19 251.18 318.6 251.45 318.09C251.73 317.58 252.17 317.18 252.7 316.95L280.01 305.7C280.32 305.57 280.65 305.5 280.98 305.5C281.31 305.5 281.64 305.57 281.95 305.7Z" fill="#397DF6" fill-opacity="1.000000" fill-rule="nonzero"/>
	<path id="Vector" d="M284.51 280.77C284.51 282.71 282.93 284.28 281 284.28C279.06 284.28 277.49 282.71 277.49 280.77C277.49 278.83 279.06 277.26 281 277.26C282.93 277.26 284.51 278.83 284.51 280.77Z" fill="#397DF6" fill-opacity="1.000000" fill-rule="evenodd"/>
	<path id="Vector" d="M282.8 244.11C282.8 245.11 281.99 245.92 281 245.92C280 245.92 279.19 245.11 279.19 244.11C279.19 243.11 280 242.3 281 242.3C281.99 242.3 282.8 243.11 282.8 244.11Z" fill="#397DF6" fill-opacity="1.000000" fill-rule="evenodd"/>
	<path id="Vector" d="M283.05 261.58C283.05 262.72 282.13 263.64 281 263.64C279.86 263.64 278.94 262.72 278.94 261.58C278.94 260.45 279.86 259.53 281 259.53C282.13 259.53 283.05 260.45 283.05 261.58Z" fill="#397DF6" fill-opacity="1.000000" fill-rule="evenodd"/>
	<path id="Vector" d="M340.94 328.31L221.05 328.31C219.59 328.32 218.2 328.9 217.17 329.93C216.14 330.96 215.56 332.36 215.56 333.81C215.57 335.26 216.15 336.66 217.17 337.68C218.2 338.71 219.59 339.29 221.05 339.3L340.94 339.3C342.4 339.29 343.79 338.71 344.82 337.68C345.85 336.66 346.43 335.26 346.43 333.81C346.43 332.36 345.85 330.96 344.82 329.93C343.79 328.9 342.4 328.32 340.94 328.31Z" fill="#397DF6" fill-opacity="1.000000" fill-rule="nonzero"/>
	<path id="Vector" d="M340.94 139.93L221.05 139.93C219.59 139.93 218.2 140.51 217.17 141.54C216.15 142.57 215.57 143.96 215.56 145.41C215.57 146.87 216.15 148.26 217.17 149.29C218.2 150.32 219.59 150.9 221.05 150.9L340.94 150.9C342.4 150.9 343.79 150.32 344.82 149.29C345.85 148.26 346.43 146.87 346.43 145.41C346.43 143.96 345.85 142.57 344.82 141.54C343.79 140.51 342.4 139.93 340.94 139.93Z" fill="#397DF6" fill-opacity="1.000000" fill-rule="nonzero"/>
	<path id="Vector" d="M184.12 331.74L177.45 329.57L181.59 313.84L188.26 316.01L184.12 331.74Z" fill="#FF8B7B" fill-opacity="1.000000" fill-rule="nonzero"/>
	<path id="Vector" d="M177.34 328.68L184.83 331.11C184.96 331.15 185.07 331.24 185.13 331.35C185.2 331.47 185.22 331.6 185.18 331.73L183.62 337.78C183.52 338.1 183.3 338.36 183.01 338.51C182.72 338.66 182.38 338.69 182.07 338.59C179.48 337.7 178.29 337.14 174.99 336.07C172.95 335.41 166.27 333.69 163.47 332.78C160.67 331.87 161.65 329.13 162.92 329.26C168.59 329.86 173.7 329.59 176.07 328.72C176.47 328.57 176.92 328.55 177.34 328.68Z" fill="#263238" fill-opacity="1.000000" fill-rule="nonzero"/>
	<g opacity="0.200000">
		<path id="Vector" d="M188.26 316.02L181.59 313.84L179.45 321.96L186.13 324.12L188.26 316.02Z" fill="#000000" fill-opacity="1.000000" fill-rule="nonzero"/>
	</g>
	<path id="Vector" d="M206.49 156.77C206.49 156.77 194.52 212.15 191.71 232.07C188.64 253.87 177.09 319.35 177.09 319.35L189.47 322.78C189.47 322.78 206.63 259.28 211.64 238.08C217.08 215.06 231.51 156.72 231.51 156.72L206.49 156.77Z" fill="#397DF6" fill-opacity="1.000000" fill-rule="nonzero"/>
	<g opacity="0.300000">
		<path id="Vector" d="M221.28 174.93C216.55 185.66 214.22 208.99 216.05 219.72C219.4 205.96 223.43 189.59 226.54 177C225.49 173.35 223.75 169.33 221.28 174.93Z" fill="#000000" fill-opacity="1.000000" fill-rule="nonzero"/>
	</g>
	<path id="Vector" d="M189.78 323.03L176.52 319.37L176.78 313.97L191.71 319.13L189.78 323.03Z" fill="#263238" fill-opacity="1.000000" fill-rule="nonzero"/>
	<path id="Vector" d="M174.6 329.08C175.22 329.26 175.85 329.37 176.49 329.42C176.52 329.42 176.55 329.42 176.58 329.4C176.61 329.39 176.63 329.36 176.65 329.34C176.66 329.31 176.67 329.28 176.67 329.24C176.67 329.21 176.66 329.18 176.64 329.16C176.47 328.94 175.01 327.04 174.09 327.09C173.98 327.1 173.88 327.13 173.79 327.19C173.7 327.24 173.63 327.32 173.58 327.42C173.48 327.55 173.43 327.71 173.41 327.88C173.4 328.04 173.43 328.21 173.5 328.36C173.77 328.72 174.16 328.98 174.6 329.08ZM176.1 329.08C174.84 328.93 173.96 328.61 173.76 328.2C173.71 328.1 173.7 328 173.71 327.89C173.72 327.79 173.76 327.69 173.82 327.6C173.85 327.56 173.88 327.52 173.93 327.49C173.97 327.46 174.02 327.45 174.07 327.44C174.56 327.39 175.49 328.31 176.1 329.05L176.1 329.08Z" fill="#263238" fill-opacity="1.000000" fill-rule="nonzero"/>
	<path id="Vector" d="M176.42 329.41L176.5 329.41C176.53 329.41 176.55 329.39 176.57 329.38C176.6 329.36 176.61 329.33 176.62 329.31C176.62 329.23 177.43 327.36 176.96 326.47C176.91 326.36 176.82 326.26 176.72 326.19C176.62 326.11 176.5 326.06 176.38 326.04C176.24 326 176.1 326.01 175.97 326.06C175.84 326.11 175.73 326.21 175.66 326.33C175.27 327.01 175.81 328.72 176.35 329.34L176.42 329.41ZM176.42 326.41C176.49 326.43 176.55 326.46 176.6 326.5C176.65 326.55 176.69 326.6 176.72 326.66C176.88 327.42 176.79 328.21 176.46 328.92C176 328.21 175.83 327.36 175.98 326.53C175.98 326.44 176.11 326.35 176.35 326.39L176.42 326.41Z" fill="#263238" fill-opacity="1.000000" fill-rule="nonzero"/>
	<path id="Vector" d="M219.22 104.18C218.86 105.03 218.56 105.67 218.23 106.39C217.9 107.11 217.54 107.77 217.19 108.45C216.49 109.83 215.75 111.16 214.98 112.49C213.44 115.17 211.73 117.76 209.88 120.23C207.98 122.79 205.87 125.19 203.58 127.41C201.15 129.81 198.38 131.86 195.37 133.49L195.14 133.61C194.75 133.81 194.35 133.95 193.93 134.04C191.77 134.49 189.54 134.4 187.43 133.79C185.67 133.26 184 132.49 182.47 131.48C179.9 129.75 177.59 127.66 175.62 125.27C173.79 123.1 172.12 120.79 170.64 118.36C169.17 115.97 167.86 113.49 166.73 110.93C166.44 110.26 166.4 109.5 166.62 108.79C166.84 108.09 167.31 107.49 167.94 107.11C168.57 106.72 169.32 106.58 170.05 106.7C170.77 106.82 171.43 107.2 171.9 107.76L172 107.88C173.56 109.77 175.25 111.78 176.95 113.62C178.61 115.45 180.38 117.18 182.23 118.8C183.87 120.29 185.7 121.56 187.66 122.59C188.4 122.97 189.19 123.23 190 123.36C190.46 123.45 190.93 123.41 191.36 123.25L189.91 123.81C191.87 122.49 193.65 120.93 195.22 119.17C196.93 117.25 198.51 115.23 199.95 113.1C201.45 110.92 202.87 108.64 204.2 106.3C204.88 105.13 205.53 103.95 206.15 102.75L207.09 100.96C207.39 100.39 207.71 99.72 207.94 99.26L207.99 99.13C208.68 97.67 209.92 96.54 211.43 95.99C212.94 95.43 214.61 95.49 216.08 96.15C217.54 96.82 218.69 98.03 219.28 99.53C219.86 101.03 219.84 102.7 219.2 104.18L219.22 104.18Z" fill="#263238" fill-opacity="1.000000" fill-rule="nonzero"/>
	<g opacity="0.300000">
		<path id="Vector" d="M203.75 117.03C206.72 109.14 213.03 109 215.77 111.09C215.57 111.46 215.36 111.83 215.15 112.2C213.67 114.78 212.04 117.28 210.28 119.68C208.47 122.15 206.49 124.49 204.33 126.66C203.65 127.34 202.95 128 202.22 128.64C201.97 124.71 202.49 120.76 203.75 117.03Z" fill="#000000" fill-opacity="1.000000" fill-rule="nonzero"/>
	</g>
	<path id="Vector" d="M166.49 111.42L160.34 111.65L161.88 105.08C163.99 105.18 166.09 105.5 168.15 106.02C168.52 106.14 168.86 106.34 169.15 106.61C169.43 106.88 169.64 107.21 169.77 107.58C169.9 107.95 169.94 108.34 169.89 108.73C169.84 109.11 169.7 109.48 169.48 109.81C169.15 110.3 168.7 110.7 168.18 110.98C167.66 111.26 167.08 111.41 166.49 111.42Z" fill="#FF8B7B" fill-opacity="1.000000" fill-rule="nonzero"/>
	<path id="Vector" d="M169.93 105.87C169.33 105.39 168.64 105.04 167.9 104.82C167.39 107.51 164.12 112.04 164.12 112.04L166.68 112.04C167.01 112.04 167.34 111.97 167.64 111.83C167.93 111.69 168.2 111.49 168.41 111.24L170.21 109.08C170.41 108.85 170.56 108.59 170.65 108.3C170.74 108.02 170.78 107.72 170.75 107.42C170.72 107.12 170.64 106.83 170.5 106.56C170.36 106.3 170.17 106.06 169.93 105.87Z" fill="#397DF6" fill-opacity="1.000000" fill-rule="nonzero"/>
	<path id="Vector" d="M155.63 108.62L157.35 103.99L161.86 105.09L160.32 111.65L155.63 108.62Z" fill="#FF8B7B" fill-opacity="1.000000" fill-rule="nonzero"/>
	<path id="Vector" d="M232.95 334.8L225.94 334.8L225.69 318.56L232.7 318.56L232.95 334.8Z" fill="#FF8B7B" fill-opacity="1.000000" fill-rule="nonzero"/>
	<path id="Vector" d="M225.57 333.99L233.45 333.99C233.52 333.99 233.58 334 233.64 334.02C233.7 334.04 233.76 334.08 233.81 334.12C233.86 334.17 233.9 334.22 233.92 334.28C233.95 334.34 233.97 334.41 233.97 334.47L234.35 340.71C234.35 341.03 234.22 341.35 233.99 341.58C233.76 341.82 233.45 341.95 233.12 341.96C230.37 341.91 229.07 341.75 225.55 341.75C223.42 341.75 216.3 341.96 213.36 341.96C210.41 341.96 210.52 339.05 211.74 338.79C217.34 337.61 222.33 335.95 224.31 334.43C224.67 334.14 225.11 333.98 225.57 333.99Z" fill="#263238" fill-opacity="1.000000" fill-rule="nonzero"/>
	<g opacity="0.200000">
		<path id="Vector" d="M232.71 318.57L225.69 318.57L225.82 326.94L232.83 326.94L232.71 318.57Z" fill="#000000" fill-opacity="1.000000" fill-rule="nonzero"/>
	</g>
	<path id="Vector" d="M220.17 156.77C220.17 156.77 217.49 217.7 218.63 237.78C219.87 259.77 222.49 324.92 222.49 324.92L235.33 324.92C235.33 324.92 238.57 261.54 239.34 239.78C240.18 216.13 244 156.77 244 156.77L220.17 156.77Z" fill="#397DF6" fill-opacity="1.000000" fill-rule="nonzero"/>
	<path id="Vector" d="M235.85 324.92L221.97 324.92L220.91 319.75L236.23 320.52L235.85 324.92Z" fill="#263238" fill-opacity="1.000000" fill-rule="nonzero"/>
	<path id="Vector" d="M223.08 335.21C223.72 335.19 224.35 335.11 224.97 334.96C225 334.95 225.03 334.94 225.05 334.91C225.07 334.89 225.09 334.86 225.1 334.83C225.1 334.8 225.1 334.77 225.08 334.74C225.07 334.72 225.05 334.69 225.03 334.67C224.8 334.51 222.82 333.16 221.96 333.5C221.86 333.54 221.78 333.6 221.71 333.68C221.64 333.76 221.6 333.85 221.58 333.95C221.53 334.11 221.53 334.27 221.57 334.42C221.6 334.58 221.68 334.72 221.79 334.84C222.16 335.12 222.62 335.25 223.08 335.21ZM224.5 334.73C223.24 334.97 222.32 334.94 221.99 334.61C221.93 334.53 221.88 334.44 221.86 334.34C221.84 334.23 221.85 334.13 221.88 334.03C221.89 333.98 221.91 333.93 221.94 333.89C221.97 333.85 222.01 333.82 222.06 333.8C222.52 333.62 223.69 334.21 224.5 334.73Z" fill="#263238" fill-opacity="1.000000" fill-rule="nonzero"/>
	<path id="Vector" d="M224.92 334.96C224.94 334.97 224.97 334.97 224.99 334.96C225.02 334.95 225.04 334.93 225.05 334.91C225.07 334.89 225.07 334.86 225.08 334.83C225.08 334.75 225.24 332.73 224.53 332.05C224.44 331.96 224.33 331.9 224.21 331.86C224.09 331.82 223.96 331.81 223.84 331.82C223.7 331.83 223.57 331.88 223.46 331.97C223.35 332.06 223.28 332.18 223.25 332.32C223.08 333.08 224.13 334.55 224.83 334.96C224.86 334.97 224.89 334.97 224.92 334.96ZM223.97 332.13C224.04 332.12 224.1 332.14 224.16 332.16C224.22 332.19 224.28 332.22 224.32 332.27C224.71 332.94 224.87 333.73 224.78 334.5C224.18 333.98 223.48 332.86 223.58 332.36C223.58 332.27 223.66 332.15 223.89 332.13L223.97 332.13Z" fill="#263238" fill-opacity="1.000000" fill-rule="nonzero"/>
	<path id="Vector" d="M247.51 100.21C247.61 99.62 247.6 99.02 247.46 98.43C247.33 97.85 247.07 97.29 246.72 96.81C246.37 96.32 245.92 95.91 245.41 95.6C244.89 95.3 244.32 95.09 243.72 95.01L243.65 95.01C241.39 94.68 238.55 94.34 235.77 94.21C230.46 93.9 225.14 93.9 219.83 94.21C217.38 94.43 214.98 94.84 213.07 95.21L213 95.21C211.8 95.45 210.7 96.01 209.8 96.84C208.9 97.66 208.24 98.71 207.9 99.88C205.61 107.59 202.87 123.33 206.45 156.76L243.96 156.76C244.22 153.41 243.48 142.51 244.03 128.63C244.57 119.09 245.74 109.6 247.51 100.21Z" fill="#263238" fill-opacity="1.000000" fill-rule="nonzero"/>
	<g opacity="0.300000">
		<path id="Vector" d="M247.15 102.28C246.37 106.76 245.42 112.86 244.75 119.31C244.75 119.31 241.33 112.59 240.71 106.85C240.08 101.1 245.01 100.67 247.15 102.28Z" fill="#000000" fill-opacity="1.000000" fill-rule="nonzero"/>
	</g>
	<g opacity="0.200000">
		<path id="Vector" d="M221.99 103.17C221.92 103.16 221.84 103.13 221.78 103.08C221.72 103.03 221.68 102.97 221.66 102.89C221.64 102.82 221.65 102.74 221.68 102.66C221.71 102.59 221.76 102.53 221.83 102.49L233.53 96.43C233.61 96.39 233.7 96.38 233.79 96.41C233.88 96.44 233.95 96.5 234 96.58C234.04 96.67 234.05 96.76 234.02 96.85C233.99 96.94 233.93 97.02 233.85 97.06L222.15 103.11C222.1 103.14 222.05 103.16 221.99 103.17Z" fill="#FFFFFF" fill-opacity="1.000000" fill-rule="nonzero"/>
		<path id="Vector" d="M227.35 103.72C227.3 103.72 227.26 103.71 227.21 103.69C227.17 103.67 227.13 103.65 227.1 103.61L220.69 97.24C220.62 97.18 220.59 97.09 220.59 96.99C220.59 96.9 220.62 96.81 220.69 96.74C220.76 96.68 220.85 96.64 220.94 96.64C221.03 96.64 221.12 96.68 221.19 96.74L227.59 103.12C227.66 103.19 227.7 103.28 227.7 103.37C227.7 103.46 227.66 103.55 227.59 103.62C227.56 103.65 227.52 103.68 227.48 103.69C227.44 103.71 227.39 103.72 227.35 103.72Z" fill="#FFFFFF" fill-opacity="1.000000" fill-rule="nonzero"/>
		<path id="Vector" d="M235.8 94.2C230.49 93.89 225.17 93.89 219.86 94.2L219.6 94.2C219.47 94.68 219.44 95.19 219.51 95.69C219.58 96.19 219.75 96.67 220.01 97.1C220.9 98.52 222.76 99.32 225.56 99.47L226.61 99.47C234.18 99.47 237.1 94.87 237.22 94.67L237.49 94.24L235.8 94.2Z" fill="#FFFFFF" fill-opacity="1.000000" fill-rule="nonzero"/>
	</g>
	<path id="Vector" d="M220.62 94.14C225.26 93.04 226.07 90.18 225.76 87.03C225.68 86.24 225.56 85.45 225.39 84.68L231.2 79.86L235.46 76.32C234.28 81.46 232.95 90.81 236.41 94.24C236.41 94.24 233.57 98.97 225.6 98.55C218.91 98.18 220.62 94.14 220.62 94.14Z" fill="#FF8B7B" fill-opacity="1.000000" fill-rule="nonzero"/>
	<g opacity="0.200000">
		<path id="Vector" d="M225.39 84.68C225.56 85.45 225.68 86.24 225.76 87.03C227.92 86.59 230.82 84.28 231.12 82.07C231.23 81.34 231.25 80.59 231.2 79.86L225.39 84.68Z" fill="#000000" fill-opacity="1.000000" fill-rule="nonzero"/>
	</g>
	<path id="Vector" d="M222.31 60.07C219.16 61.96 219.66 66.69 218.81 70.07C220.81 70.27 223.97 66.71 223.97 66.71L225.86 61.29L222.31 60.07Z" fill="#263238" fill-opacity="1.000000" fill-rule="nonzero"/>
	<path id="Vector" d="M239.06 69.58C237.04 76.26 236.22 80.26 231.95 83.05C230.57 83.97 228.97 84.5 227.32 84.58C225.66 84.65 224.02 84.27 222.57 83.48C221.12 82.69 219.91 81.52 219.07 80.09C218.24 78.66 217.81 77.04 217.83 75.38C217.83 69.02 221.1 59.16 228.41 57.8C229.98 57.46 231.62 57.54 233.15 58.04C234.68 58.53 236.05 59.42 237.13 60.62C238.21 61.81 238.96 63.27 239.3 64.84C239.63 66.42 239.55 68.05 239.06 69.58Z" fill="#FF8B7B" fill-opacity="1.000000" fill-rule="nonzero"/>
	<path id="Vector" d="M232.77 75.25C237.5 69.76 231.59 67.06 236.42 63.24C230.98 63.5 222.02 63.11 220.42 59.38C218.82 55.66 223.74 50.61 227.84 50.13C232.57 49.58 231.55 55.44 231.55 55.44C231.55 55.44 249.64 54.31 243.9 62.06C248.25 61.8 247.05 68.84 239.48 74.78C237.58 75.41 232.77 75.25 232.77 75.25Z" fill="#263238" fill-opacity="1.000000" fill-rule="nonzero"/>
	<path id="Vector" d="M242.81 62.16C242.81 62.16 246.54 61.05 246.42 58.1C247.76 59.03 247.9 61.84 242.81 62.16Z" fill="#263238" fill-opacity="1.000000" fill-rule="nonzero"/>
	<path id="Vector" d="M240.17 76.55C239.08 77.9 237.56 78.83 235.86 79.18C233.71 79.56 233.21 77.58 234.28 75.64C235.23 73.9 237.53 71.6 239.46 72.08C241.39 72.56 241.54 74.86 240.17 76.55Z" fill="#FF8B7B" fill-opacity="1.000000" fill-rule="nonzero"/>
	<path id="Vector" d="M228.28 69.41C228.15 69.96 227.75 70.36 227.39 70.27C227.02 70.19 226.84 69.7 226.97 69.15C227.1 68.6 227.5 68.2 227.86 68.28C228.22 68.35 228.42 68.85 228.28 69.41Z" fill="#263238" fill-opacity="1.000000" fill-rule="nonzero"/>
	<path id="Vector" d="M222.01 68.15C221.88 68.7 221.48 69.1 221.12 69.02C220.76 68.95 220.56 68.45 220.7 67.9C220.83 67.35 221.23 66.95 221.59 67.03C221.95 67.1 222.14 67.61 222.01 68.15Z" fill="#263238" fill-opacity="1.000000" fill-rule="nonzero"/>
	<path id="Vector" d="M223.94 68.83C222.87 70.38 221.6 71.79 220.16 73.01C220.48 73.35 220.87 73.63 221.31 73.8C221.75 73.98 222.22 74.06 222.69 74.04L223.94 68.83Z" fill="#FF5652" fill-opacity="1.000000" fill-rule="nonzero"/>
	<path id="Vector" d="M224.62 75.97C225.28 76.03 225.94 75.96 226.56 75.76C227.19 75.55 227.77 75.23 228.27 74.8C228.28 74.78 228.29 74.76 228.3 74.74C228.31 74.72 228.32 74.7 228.32 74.68C228.32 74.66 228.31 74.64 228.3 74.62C228.29 74.6 228.28 74.58 228.27 74.57C228.23 74.54 228.19 74.52 228.15 74.52C228.1 74.52 228.06 74.54 228.03 74.57C227.49 75.03 226.84 75.36 226.15 75.53C225.46 75.71 224.73 75.72 224.04 75.56C224.02 75.56 223.99 75.56 223.97 75.56C223.95 75.57 223.93 75.58 223.91 75.59C223.9 75.6 223.88 75.62 223.87 75.63C223.86 75.65 223.85 75.67 223.85 75.69C223.84 75.74 223.85 75.78 223.87 75.82C223.9 75.86 223.94 75.88 223.98 75.89L224.62 75.97Z" fill="#263238" fill-opacity="1.000000" fill-rule="nonzero"/>
	<path id="Vector" d="M230.71 67.88C230.76 67.9 230.81 67.9 230.87 67.88C230.91 67.86 230.94 67.84 230.97 67.81C231 67.77 231.02 67.74 231.04 67.7C231.05 67.66 231.06 67.61 231.06 67.57C231.06 67.53 231.05 67.48 231.03 67.44C230.82 66.96 230.5 66.54 230.1 66.21C229.69 65.87 229.21 65.65 228.69 65.55C228.6 65.54 228.52 65.57 228.44 65.62C228.37 65.67 228.33 65.75 228.31 65.84C228.31 65.88 228.31 65.92 228.32 65.97C228.33 66.01 228.35 66.05 228.38 66.08C228.41 66.12 228.44 66.15 228.48 66.17C228.52 66.19 228.56 66.2 228.61 66.21C229.01 66.29 229.38 66.47 229.7 66.73C230.01 66.99 230.26 67.32 230.42 67.7C230.45 67.75 230.49 67.8 230.54 67.83C230.59 67.86 230.65 67.88 230.71 67.88Z" fill="#263238" fill-opacity="1.000000" fill-rule="nonzero"/>
	<path id="Vector" d="M220.46 64.39C220.51 64.41 220.57 64.41 220.62 64.4C220.67 64.39 220.72 64.37 220.76 64.33C221.09 64.06 221.48 63.87 221.89 63.77C222.3 63.67 222.73 63.68 223.15 63.77C223.19 63.79 223.23 63.79 223.28 63.79C223.32 63.79 223.36 63.77 223.4 63.76C223.44 63.74 223.48 63.71 223.5 63.67C223.53 63.64 223.55 63.6 223.57 63.56C223.58 63.52 223.59 63.48 223.58 63.43C223.58 63.39 223.57 63.35 223.55 63.31C223.53 63.27 223.5 63.23 223.47 63.2C223.44 63.18 223.4 63.15 223.36 63.14C222.84 63.01 222.3 63.01 221.78 63.12C221.26 63.24 220.77 63.48 220.36 63.81C220.29 63.87 220.24 63.95 220.23 64.03C220.22 64.12 220.25 64.21 220.3 64.28C220.34 64.33 220.4 64.37 220.46 64.39Z" fill="#263238" fill-opacity="1.000000" fill-rule="nonzero"/>
	<path id="Vector" d="M247.85 97.52L248.63 98.59L249.34 99.59C249.82 100.26 250.24 100.93 250.69 101.61C251.55 102.96 252.36 104.33 253.15 105.71C254.72 108.47 256.15 111.31 257.42 114.23C258.08 115.66 258.65 117.16 259.26 118.62C259.86 120.09 260.37 121.61 260.84 123.15C261.83 126.2 262.65 129.3 263.29 132.45L263.37 132.8C263.51 133.44 263.52 134.1 263.41 134.74C263.29 135.37 263.05 135.99 262.7 136.53C261.48 138.4 260.04 140.12 258.4 141.63C256.71 143.18 254.79 144.45 252.72 145.41C250.67 146.37 248.48 146.98 246.23 147.21C245.13 147.33 244.02 147.34 242.92 147.27C242.37 147.27 241.82 147.16 241.27 147.08L240.44 146.92L239.49 146.68C239.38 146.66 239.29 146.59 239.23 146.49C239.17 146.39 239.15 146.27 239.17 146.16L240.48 140.67C240.48 140.63 240.72 140.62 240.88 140.58L241.4 140.48C241.76 140.4 242.11 140.32 242.46 140.22C243.17 140.03 243.85 139.79 244.52 139.5C245.81 138.97 247.01 138.26 248.1 137.39C250.23 135.64 251.93 133.42 253.08 130.91L252.48 135C251.67 132.32 250.81 129.67 249.77 127.05C248.73 124.43 247.59 121.86 246.35 119.32C245.11 116.79 243.79 114.28 242.36 111.84C241.66 110.62 240.92 109.42 240.18 108.23L239.06 106.47L238.5 105.62L237.98 104.86L237.79 104.58C236.86 103.24 236.49 101.59 236.77 99.99C237.05 98.38 237.96 96.95 239.29 96.02C240.62 95.08 242.28 94.72 243.88 95C245.48 95.28 246.91 96.18 247.85 97.52Z" fill="#263238" fill-opacity="1.000000" fill-rule="nonzero"/>
	<path id="Vector" d="M235.34 146.13L233.31 149.46L242.13 149.11C242.13 149.11 244.45 143.17 241.29 142.24L240.06 142.57C238.09 143.12 236.41 144.39 235.34 146.13Z" fill="#FF8B7B" fill-opacity="1.000000" fill-rule="nonzero"/>
	<path id="Vector" d="M238.97 141.47C238.34 141.9 237.79 142.45 237.37 143.09C239.77 144.39 243.12 148.84 243.12 148.84L243.89 146.4C243.99 146.08 244.02 145.75 243.98 145.42C243.93 145.1 243.82 144.78 243.64 144.51L242.17 142.14C242.01 141.88 241.8 141.66 241.55 141.48C241.3 141.3 241.02 141.18 240.72 141.12C240.42 141.06 240.11 141.05 239.81 141.11C239.51 141.17 239.23 141.3 238.97 141.47Z" fill="#397DF6" fill-opacity="1.000000" fill-rule="nonzero"/>
	<path id="Vector" d="M234.08 154.59L241.36 153.95L242.13 149.11L233.31 149.46L234.08 154.59Z" fill="#FF8B7B" fill-opacity="1.000000" fill-rule="nonzero"/>
	<path id="Vector" d="M144.79 39.1L144.31 38.29C145.69 37.47 147.14 36.75 148.63 36.13L148.99 37.01C147.54 37.6 146.14 38.3 144.79 39.1Z" fill="#397DF6" fill-opacity="1.000000" fill-rule="nonzero"/>
	<path id="Vector" d="M130.98 55.81L130.03 55.49C132.28 49.28 136.33 43.89 141.68 40.01L142.24 40.78C137.06 44.54 133.14 49.78 130.98 55.81Z" fill="#397DF6" fill-opacity="1.000000" fill-rule="nonzero"/>
	<path id="Vector" d="M190.12 66.58C190.12 82.67 177.09 95.7 161 95.7C144.92 95.7 131.89 82.67 131.89 66.58C131.89 50.5 144.92 37.47 161 37.47C177.09 37.47 190.12 50.5 190.12 66.58Z" fill="#234E99" fill-opacity="1.000000" fill-rule="evenodd"/>
	<g opacity="0.600000">
		<path id="Vector" d="M185.33 66.58C185.32 72.26 183.34 77.75 179.71 82.12C176.09 86.48 171.05 89.44 165.47 90.48C159.89 91.53 154.13 90.59 149.17 87.82C144.21 85.06 140.38 80.66 138.33 75.37C136.28 70.07 136.14 64.23 137.94 58.85C139.74 53.47 143.37 48.89 148.19 45.9C153.02 42.91 158.73 41.7 164.35 42.49C169.97 43.27 175.14 45.99 178.97 50.18C178.98 50.18 178.98 50.18 178.99 50.18C179 50.18 179.01 50.18 179.02 50.18C183.09 54.67 185.35 60.52 185.33 66.58Z" fill="#FFFFFF" fill-opacity="1.000000" fill-rule="nonzero"/>
	</g>
	<path id="Vector" d="M185.33 66.58C185.33 71.31 183.95 75.94 181.36 79.89C178.77 83.85 175.09 86.97 170.76 88.86C166.43 90.76 161.64 91.35 156.98 90.57C152.31 89.79 147.98 87.66 144.51 84.45C140.26 79.83 137.97 73.73 138.11 67.45C138.25 61.17 140.82 55.19 145.28 50.76C149.73 46.33 155.72 43.8 162 43.69C168.29 43.58 174.36 45.91 178.97 50.18C178.98 50.18 178.98 50.18 178.99 50.18C179 50.18 179.01 50.18 179.02 50.18C183.09 54.67 185.35 60.52 185.33 66.58Z" fill="#FFFFFF" fill-opacity="1.000000" fill-rule="nonzero"/>
	<path id="Vector" d="M161 68C160.82 68 160.63 67.97 160.46 67.9C160.29 67.82 160.13 67.72 160 67.59L148.14 55.72C148 55.59 147.89 55.44 147.81 55.26C147.73 55.09 147.69 54.9 147.69 54.71C147.68 54.52 147.72 54.33 147.79 54.15C147.86 53.98 147.97 53.82 148.1 53.68C148.24 53.55 148.4 53.44 148.57 53.37C148.75 53.3 148.94 53.26 149.13 53.27C149.32 53.27 149.51 53.31 149.68 53.39C149.86 53.47 150.01 53.58 150.14 53.72L161 64.58L167.28 58.31C167.55 58.06 167.9 57.92 168.27 57.93C168.64 57.93 168.99 58.08 169.25 58.34C169.51 58.6 169.66 58.95 169.66 59.32C169.67 59.69 169.53 60.04 169.28 60.31L162.01 67.59C161.74 67.85 161.38 68 161 68Z" fill="#263238" fill-opacity="1.000000" fill-rule="nonzero"/>
</svg>
